<?xml version="1.0" encoding="utf-8" ?><svg xmlns="http://www.w3.org/2000/svg" xmlns:xlink="http://www.w3.org/1999/xlink" width="512" height="512" viewBox="0 0 512 512"><path d="M190.142 284.598C207.298 283.158 225.427 291.036 239.779 299.812C242.696 301.596 247.828 305.577 250.758 306.511C256.131 308.223 262.039 309.606 267.528 311.076L301.405 320.161C306.801 321.596 315.385 323.583 320.163 325.855C324.46 327.89 328.345 330.7 331.622 334.145C332.623 335.203 333.561 336.318 334.432 337.485C338.426 342.947 336.397 344.135 344.206 341.579C346.195 340.928 348.838 340.202 350.907 339.587L406.255 323.331C420.295 319.205 434.29 314.528 448.812 312.372C466.586 309.621 489.371 312.214 498.841 329.74C509.992 350.276 497.107 378.272 477.471 388.487C471.042 391.832 462.279 394.759 455.364 397.438L412.846 413.835L346.612 439.355C321.896 448.885 287.602 464.699 260.94 456.887C254.251 455.329 245.178 452.359 238.335 450.368L190.504 436.473C175.766 432.284 168.241 435.06 155.147 441.791C150.36 444.251 145.206 446.498 140.383 449.181C142.458 452.795 145.659 461.434 145.925 465.586C146.288 471.281 144.357 476.884 140.563 481.147C139.018 482.884 136.33 485.097 134.208 486.085C124.176 490.755 113.718 494.572 103.576 499.013C101.233 500.039 98.5225 501.211 96.111 501.979C94.3851 502.539 92.5927 502.867 90.7805 502.957C84.9276 503.285 79.19 501.237 74.8687 497.276C70.6518 493.402 69.3515 489.599 67.1918 484.393C64.7016 478.389 62.2124 472.376 59.7152 466.374L40.6623 420.646L20.9083 373.237C17.4113 364.855 13.8592 356.487 10.4896 348.056C7.42284 340.383 9.31035 331.081 14.974 325.099C16.499 323.507 18.2667 322.167 20.2114 321.129C21.7492 320.292 23.4389 319.553 25.0647 318.923C36.1288 314.637 47.2232 309.389 58.308 305.267C68.87 301.339 81.3277 307.06 85.5939 317.391C86.6617 319.527 87.6595 323.373 89.1727 325.074C89.8475 325.832 98.2419 321.408 99.2308 320.93L131.844 305.264C151.894 295.567 167.707 286.675 190.142 284.598Z"/><path fill="#EFC7A4" d="M94.4315 338.732C107.894 332.438 121.309 326.042 134.675 319.544C150.819 311.726 168.027 302.159 185.834 299.321C203.904 296.44 221.108 304.425 235.926 313.9C238.586 315.597 241.318 317.938 244.249 319.211C249.855 321.005 256.158 322.572 261.867 324.095L297.698 333.666C301.364 334.648 305.247 335.811 308.913 336.683C322.487 339.912 330.36 352.454 327.024 366.223C326.003 368.164 325.907 369.59 324.159 372.454C320.215 378.822 313.463 382.921 305.993 383.481C300.506 383.917 294.448 381.846 289.139 380.416L272.573 375.946L223.92 362.915C220.408 361.962 216.864 360.971 213.348 360.039C208.119 358.653 205.366 358.995 202.667 363.938C201.766 368.553 203.14 371.54 207.816 373.064C212.137 374.473 216.675 375.524 221.075 376.692L246.073 383.384L278.929 392.177C295.942 396.727 309.454 402.13 325.699 390.815C333.863 385.113 339.445 376.416 341.229 366.618C341.837 363.198 341.827 360.354 341.742 356.903L406.194 337.98C412.68 336.076 418.95 334.359 425.686 332.262C442.726 326.959 480.151 316.998 488.047 340.083C492.124 352.004 482.62 370.288 471.641 375.677C465.463 378.942 457.051 381.773 450.339 384.361L410.216 399.806L345.324 424.813C330.765 430.441 315.755 436.639 300.813 441.03C291.928 443.642 282.03 445.39 272.796 444.7C265.811 444.178 257.456 441.322 250.524 439.298L209.929 427.477C197.493 423.862 184.71 418.921 171.649 420.805C162.691 422.097 155.049 426.254 147.043 430.169C143.197 432.052 138.808 434.088 135.024 436.081L108.073 371.349L99.1644 349.942C97.8119 346.693 95.9433 341.764 94.4315 338.732Z"/><path fill="#D2A688" d="M187.427 328.775C197.717 331.279 208.548 334.373 218.824 337.113L283.627 354.455L313.906 362.541C316.32 363.189 325.34 365.451 327.024 366.223C326.003 368.164 325.907 369.59 324.159 372.454C320.215 378.822 313.463 382.921 305.993 383.481C300.506 383.917 294.448 381.846 289.139 380.416L272.573 375.946L223.92 362.915C220.408 361.962 216.864 360.971 213.348 360.039C208.119 358.653 205.366 358.995 202.667 363.938C202.621 363.864 202.576 363.791 202.53 363.718C192.519 357.932 186.084 347.085 186.7 335.398C186.813 333.261 187.067 331.066 187.427 328.775Z"/><path fill="#E6E7E8" d="M65.575 318.087C66.945 318.183 68.4199 318.451 69.5721 319.211C70.8534 320.048 71.8772 321.225 72.5293 322.61C77.1282 332.554 82.084 345.432 86.3609 355.703L113.576 421.067L126.069 451.031C126.769 452.711 127.534 454.428 128.188 456.114C129.25 459.195 131.243 462.484 131.798 465.7C132.908 472.138 127.144 474.08 122.551 475.951C115.015 479.02 107.853 482.115 100.356 485.152C96.9113 486.548 93.1748 488.448 89.5583 488.954C86.7861 488.876 83.8515 487.438 82.6641 484.82C80.9708 481.087 79.4351 477.243 77.8568 473.456L69.3732 453.09L42.9432 389.59L29.283 356.838C27.1648 351.758 24.7033 346.495 23.1862 341.252C22.4456 338.693 24.4352 334.58 26.8831 333.584C31.6482 331.643 37.5453 328.542 42.3268 326.991C48.4619 325 59.5291 318.713 65.575 318.087Z"/><path d="M286.175 9.075C287.86 9.12112 289.365 9.44935 290.834 10.2776C299.246 15.0192 307.662 19.9399 316.016 24.7691L364.75 52.9094L395.462 70.6207C414.347 81.5153 412.497 76.8974 412.499 98.729L412.502 125.178L412.502 169.307C412.501 177.336 412.65 185.958 412.43 193.948C419.999 195.521 425.217 196.915 432.075 200.822C444.663 207.99 453.89 219.861 457.729 233.829C461.563 247.854 459.646 262.83 452.403 275.438C445.039 288.2 432.889 297.498 418.645 301.271C404.651 304.886 389.792 302.782 377.352 295.422C363.902 287.508 355.665 275.612 351.794 260.689L344.352 264.932L307.633 286.147C303.838 288.348 300.031 290.644 296.203 292.773C292.45 294.861 288.026 298.599 283.645 296.284C278.655 293.646 273.845 290.736 268.984 287.907L243.565 273.228C217.791 258.361 192.012 243.452 166.238 228.584C164.623 227.538 162.026 226.351 161.68 224.232C160.702 218.237 161.093 211.239 161.094 205.169L161.101 172.09L161.093 115.187C161.091 105.221 161.031 95.2493 161.166 85.2858C161.208 82.1539 162.152 79.8237 164.98 78.1768C170.367 75.0399 175.783 71.9487 181.183 68.8329L213.743 50.0326L257.241 24.9232C262.277 22.0144 281.934 9.89495 286.175 9.075Z"/><path fill="#D2A688" d="M175.191 96.7635C177.467 97.7951 182.606 100.956 184.927 102.3L203.621 113.127L245.833 137.445C256.555 143.698 268.899 151.152 279.782 157.024C279.614 169.781 279.755 182.835 279.755 195.611L279.734 277.9C269.974 272.692 258.166 265.448 248.39 259.802L175.226 217.611L175.191 96.7635Z"/><path fill="#D2A688" d="M398.081 97.0009C398.302 97.0181 398.158 96.9864 398.453 97.2431C398.612 100.589 398.483 104.867 398.48 108.275L398.478 128.428L398.517 193.948C386.716 195.806 376.981 199.816 368.087 208.008C357.525 217.648 351.194 231.067 350.47 245.349C345.547 247.709 336.412 253.361 331.341 256.29L293.797 277.955L293.791 226.625L293.755 157.108C294.961 156.506 296.17 155.78 297.338 155.098C305.75 150.186 314.278 145.434 322.655 140.464C322.186 148.709 322.592 157.216 322.587 165.486C322.583 171.363 322.124 179.523 322.707 185.165C322.857 186.623 323.141 188.528 324.087 189.682C325.339 191.209 327.374 192.375 329.368 192.453C330.787 192.509 332.225 191.822 333.482 191.219C337.626 189.232 365.459 173.299 367.68 171.114C368.548 170.261 369.179 169.271 369.398 168.062C370.25 163.349 369.716 155.333 369.715 150.234L369.639 113.252C378.846 108.517 388.808 102.087 398.081 97.0009Z"/><path fill="#C7EB94" d="M400.597 207.876C422.874 205.432 442.925 221.483 445.416 243.755C447.907 266.027 431.898 286.112 409.631 288.65C387.298 291.195 367.141 275.128 364.642 252.79C362.144 230.452 378.253 210.328 400.597 207.876Z"/><path d="M403.339 218.8C403.767 218.748 404.196 218.713 404.627 218.696C406.55 218.639 408.423 219.256 409.802 220.598C412.028 222.727 412.119 225.965 412.09 228.839C412.048 232.97 412.022 237.113 412.073 241.244C416.997 241.279 428.671 240.129 432.263 243.069C433.666 244.218 434.424 245.829 434.56 247.624C434.705 249.522 434.245 251.45 432.916 252.863C431.91 253.933 430.571 254.63 429.156 254.982C425.46 255.902 416.18 255.282 412.01 255.295C412.038 259.141 412.09 263.015 412.106 266.859C412.128 271.998 412.095 275.593 406.722 277.709C406.139 277.773 405.552 277.803 404.965 277.8C396.927 277.752 397.892 268.679 397.975 263.227C398.015 260.592 397.991 257.929 397.997 255.294C392.492 255.2 386.322 255.706 380.884 254.993C377.916 254.605 375.409 251.543 375.476 248.436C375.647 240.43 383.511 241.092 389.295 241.205C392.163 241.248 395.132 241.24 398 241.259C398.053 237.288 397.927 233.225 397.938 229.249C397.953 224.08 398.149 220.99 403.339 218.8Z"/><path fill="#D2A688" d="M286.545 24.2547C288.858 24.48 382.553 79.7234 391.635 84.522C382.454 89.1014 372.175 96.2927 362.831 100.978C361.893 100.932 349.383 93.4623 347.179 92.1919L314.053 73.0768C295.553 62.3828 276.253 51.6147 258.002 40.6362C266.926 36.0178 277.706 29.3817 286.545 24.2547Z"/><path fill="#D2A688" d="M210.913 67.9371C214.587 69.7207 220.45 73.3574 224.11 75.4795L246.541 88.4157L315.762 128.384C313.257 129.528 308.827 132.246 306.315 133.697C299.923 137.429 293.508 141.119 287.069 144.767C285.975 144.746 281.167 141.698 279.878 140.945L263.809 131.653L209.912 100.527L192.131 90.2586C189.012 88.4579 185.148 86.0947 181.993 84.5072C190.691 80.051 202.318 72.9293 210.913 67.9371Z"/><path fill="#EFC7A4" d="M243.805 48.9577C245.445 49.1568 337.46 102.772 348.768 109.33C342.599 112.331 336.121 116.877 329.846 120C328.891 120.015 312.709 110.418 310.263 109.006L271.149 86.4339L241.645 69.4029C236.309 66.3203 230.141 62.9364 224.987 59.6581C227.054 58.7391 230.015 56.9223 232.059 55.7433L243.805 48.9577Z"/><path fill="#EFC7A4" d="M355.475 121.543C355.762 122.086 355.635 158.584 355.72 162.424C353.838 163.27 350.796 165.116 348.954 166.183C344.996 168.516 341.008 170.796 336.99 173.023C336.885 172.919 336.781 172.815 336.677 172.711C336.674 162.674 336.673 141.352 336.639 132.405L355.475 121.543Z"/></svg>