<?xml version="1.0" encoding="utf-8" ?><svg xmlns="http://www.w3.org/2000/svg" xmlns:xlink="http://www.w3.org/1999/xlink" width="512" height="512" viewBox="0 0 512 512"><path transform="scale(0.5 0.5)" d="M389.359 68.7375C402.107 68.4802 414.891 68.5977 427.644 68.6225C459.205 68.6839 490.804 68.4114 522.354 69.0237C528.638 68.7287 535.114 73.1957 536.223 79.7421C538.545 93.4554 534.344 109.103 539.351 122.434C542.266 130.198 550.92 135.851 557.396 140.788C582.405 159.854 613.092 177.288 618.994 211.123C621.699 225.712 620.076 235.982 617.64 250.183C612.753 278.672 603.088 308.322 586.736 332.346C590.098 333.983 593.272 335.552 596.436 337.559C607.536 344.457 615.365 355.561 618.135 368.333C620.835 381.156 618.284 394.526 611.053 405.454C603.735 416.501 592.082 423.83 579.158 426.405C578.132 463.314 554.613 510.786 525.112 533.427C524.76 546.617 525.032 561.096 525.006 574.367C536.811 575.429 546.605 576.097 558.554 578.3C588.319 583.79 625.021 597.514 649.093 615.972C663.114 604.48 678.617 594.925 695.185 587.566C739.299 568.641 789.094 567.867 833.775 585.411C878.156 603.077 913.744 637.584 932.772 681.399C951.154 724.062 952.006 772.245 935.144 815.531C917.111 860.904 881.702 897.195 836.787 916.339C793.34 934.7 744.389 935.102 700.647 917.457C697.973 916.565 692.323 913.666 689.968 913.356C685.239 912.734 678.962 912.926 674.106 912.931L647.534 912.95L556.287 912.632L249.927 912.086L150.252 912.068C133.425 912.073 116.582 912.179 99.7589 911.934C95.7865 911.876 90.4545 907.994 90.2421 903.936C89.7391 894.331 90.0272 884.495 90.0653 874.848L90.0505 819.577C90.2618 753.156 114.921 689.95 162.5 643.117C196.845 608.769 241.062 586.008 288.973 578.014C299.224 576.321 310.652 574.952 321.04 575.007L321.022 535.689C318.648 533.324 315.833 530.825 313.354 528.489C286.398 503.09 267.671 464.118 266.988 426.781C262.506 426.09 258.125 424.857 253.94 423.109C219.53 408.507 215.504 359.953 245.549 338.729C250.213 335.435 254.291 333.714 259.585 331.646C255.874 326.617 252.291 322.844 248.435 317.215C233.084 295.238 224.302 269.346 223.116 242.565C220.998 185.68 252.492 129.01 299.493 97.6902C326.904 79.4245 356.468 69.8677 389.359 68.7375ZM879.791 635.403C813.353 572.448 708.509 575.547 646.785 642.537C617.275 674.565 603.119 712.71 604.497 756.248C605.375 796.685 621.546 835.287 649.754 864.274C651.214 865.896 653.184 867.698 654.799 869.186C686.351 898.709 728.383 914.413 771.563 912.813C816.023 911.001 856.096 893.63 886.389 860.743C915.662 829.482 931.215 787.81 929.581 745.013C927.842 705.299 909.221 662.376 879.791 635.403Z"/><path fill="#79B2FC" transform="scale(0.5 0.5)" d="M524.304 591.995C564.82 592.786 603.433 606.407 637.502 627.805C631.331 634.363 624.546 642.089 619.278 649.387C592.078 687.069 582.12 734.06 589.291 779.717C595.183 819.618 615.013 856.143 645.267 882.817C650.32 887.279 656.293 891.541 661.78 895.544C643.05 894.82 621.719 895.189 602.878 895.167L502.595 895.061L221.206 895.048C221.742 848.053 221.029 800.881 221.229 753.87C221.237 751.998 220.856 748.451 220.186 746.805C219.42 744.942 217.925 743.473 216.049 742.74C212.683 741.411 210.432 742.061 207.386 743.515C206.016 744.843 204.338 746.842 204.173 748.781C203.708 754.229 203.884 759.809 203.896 765.268L203.962 795.227L203.915 895.093C172.762 894.359 139.281 894.972 107.894 895.013L107.856 835.554C107.852 822.808 107.497 808.683 108.607 796.118C112.852 747.41 132.862 701.414 165.603 665.102C198.891 628.435 240.866 603.764 289.999 595.385C300.246 593.638 310.308 593.166 320.674 592.654C322.567 612.761 330.61 631.796 343.707 647.17C361.304 668.352 386.754 681.474 414.216 683.526C441.195 685.595 467.919 677.067 488.713 659.753C509.419 642.183 521.996 619.13 524.304 591.995Z"/><path fill="#50C875" transform="scale(0.5 0.5)" d="M649.754 864.274C621.546 835.287 605.375 796.685 604.497 756.248C603.119 712.71 617.275 674.565 646.785 642.537C708.509 575.547 813.353 572.448 879.791 635.403C909.221 662.376 927.842 705.299 929.581 745.013C931.215 787.81 915.662 829.482 886.389 860.743C856.096 893.63 816.023 911.001 771.563 912.813C728.383 914.413 686.351 898.709 654.799 869.186C653.184 867.698 651.214 865.896 649.754 864.274ZM732.839 719.067L704.398 718.99C689.961 718.963 673.662 717.013 662.47 728.134C649.329 741.192 650.073 763.318 663.396 776.048C667.037 779.545 671.495 782.076 676.364 783.41C684.869 785.682 721.87 784.776 732.96 784.745L732.916 814.658C732.911 821.856 732.422 832.998 734.178 839.653C735.611 845.022 738.4 849.933 742.277 853.913C750.164 861.947 759.78 863.726 770.623 862.917C780.146 861.087 787.518 857.38 793.13 849.104C795.517 845.558 797.154 841.561 797.939 837.359C799.157 831.125 798.897 820.129 798.883 813.501L798.77 784.454L827.68 784.556C843.265 784.597 857.561 786.486 869.522 774.46C875.692 768.252 879.094 759.815 878.955 751.064C878.907 742.272 875.323 733.869 869.009 727.75C864.987 723.863 860.024 721.088 854.606 719.696C846.211 717.519 809.744 718.414 798.908 718.479C798.864 709.327 798.87 700.175 798.926 691.023C798.967 675.59 800.618 660.233 788.462 648.591C780.821 641.273 771.956 639.244 761.757 640.132C747.747 642.496 735.467 652.164 733.736 666.343C731.749 682.611 733.197 702.495 732.839 719.067Z"/><path fill="#3FAC5B" transform="scale(0.5 0.5)" d="M879.791 635.403C909.221 662.376 927.842 705.299 929.581 745.013C931.215 787.81 915.662 829.482 886.389 860.743C856.096 893.63 816.023 911.001 771.563 912.813C728.383 914.413 686.351 898.709 654.799 869.186C653.184 867.698 651.214 865.896 649.754 864.274C652.308 863.188 654.394 864.17 656.871 865.114C672.948 871.244 690.724 875.191 707.893 876.277C753.553 879.442 798.573 864.152 832.862 833.834C885.362 787.682 904.46 724.84 887.068 658.256C885.595 652.614 879.231 640.306 879.791 635.403Z"/><path transform="scale(0.5 0.5)" d="M761.757 640.132C771.956 639.244 780.821 641.273 788.462 648.591C800.618 660.233 798.967 675.59 798.926 691.023C798.87 700.175 798.864 709.327 798.908 718.479C809.744 718.414 846.211 717.519 854.606 719.696C860.024 721.088 864.987 723.863 869.009 727.75C875.323 733.869 878.907 742.272 878.955 751.064C879.094 759.815 875.692 768.252 869.522 774.46C857.561 786.486 843.265 784.597 827.68 784.556L798.77 784.454L798.883 813.501C798.897 820.129 799.157 831.125 797.939 837.359C797.154 841.561 795.517 845.558 793.13 849.104C787.518 857.38 780.146 861.087 770.623 862.917C759.78 863.726 750.164 861.947 742.277 853.913C738.4 849.933 735.611 845.022 734.178 839.653C732.422 832.998 732.911 821.856 732.916 814.658L732.96 784.745C721.87 784.776 684.869 785.682 676.364 783.41C671.495 782.076 667.037 779.545 663.396 776.048C650.073 763.318 649.329 741.192 662.47 728.134C673.662 717.013 689.961 718.963 704.398 718.99L732.839 719.067C733.197 702.495 731.749 682.611 733.736 666.343C735.467 652.164 747.747 642.496 761.757 640.132ZM769.108 846.778C774.205 844.968 777.754 842.887 780.125 837.728C783.654 830.05 782.023 796.594 781.933 786.265C781.896 781.92 781.198 776.699 782.561 772.554C783.293 770.326 784.668 768.821 786.86 767.969C791.224 766.272 796.731 767.272 801.344 767.341C811.353 767.491 843.572 768.665 851.177 766.366C854.856 765.254 858.445 762.858 860.187 759.346C862.175 755.341 863.215 749.764 861.531 745.486C859.987 741.566 856.16 738.641 852.303 737.21C844.879 734.457 811.484 735.919 801.504 735.993C797.264 736.025 791.998 736.703 787.945 735.497C785.686 734.824 784.016 733.209 783.034 731.093C781.167 727.068 781.831 721.54 781.871 717.176C781.965 706.78 783.55 675.433 780.747 667.159C779.317 662.94 776.669 659.594 772.473 657.912C770.179 656.992 767.466 656.431 764.991 656.638C747.949 658.972 749.886 676.093 749.943 688.947L750.176 717.295C750.362 737.024 749.196 736.307 729.785 736.17L701 735.979C687.049 735.921 666.49 734.687 670.966 756.158C671.724 759.844 674.029 763.026 677.295 764.895C683.525 768.543 694.751 767.591 702.009 767.56L731.346 767.417C749.135 767.297 750.565 767.079 750.16 786.537C749.993 794.566 750.029 803.349 749.99 811.467C749.919 826.278 746.888 848.592 769.108 846.778Z"/><path fill="#FBCEAF" transform="scale(0.5 0.5)" d="M510.36 231.032C511.325 236.214 511.301 244.35 512.496 250.925C517.272 277.222 527.499 299.438 543.014 320.992C546.759 326.196 560.001 341.006 560.926 345.527C562.1 351.265 561.798 368.183 561.784 375.072C561.706 413.688 565.373 443.264 546.421 478.95C528.985 512.154 498.972 536.988 463.09 547.9C425.167 559.312 388.014 554.536 353.381 535.96C337.162 526.734 322.932 514.384 311.515 499.625C282.718 462.091 283.538 426.715 283.944 382.099C284.046 370.922 283.208 352.315 284.58 341.818C287.152 329.792 289.536 316.978 292.864 305.151C295.285 296.551 297.199 273.331 308.031 272.404C317.37 271.606 328.035 271.905 337.371 271.914L410.269 271.971C423.883 271.979 437.638 272.318 451.204 271.362C477.027 269.541 491.393 245.273 510.36 231.032Z"/><path transform="scale(0.5 0.5)" d="M379.144 468.512C382.624 468.383 384.68 469.375 387.798 470.899C399.942 476.832 410.813 479.817 424.385 479.639C430.799 479.551 437.167 478.538 443.293 476.633C451.635 474.096 465.563 463.307 471.331 472.627C472.566 474.617 472.962 477.016 472.43 479.297C471.628 482.688 469.261 484.156 466.525 485.932C444.08 496.937 424.087 499.86 399.434 493.612C392.818 491.936 376.879 486.844 373.53 480.604C372.489 478.648 372.317 476.345 373.058 474.257C374.106 471.214 376.48 469.889 379.144 468.512Z"/><path transform="scale(0.5 0.5)" d="M329.023 328.132C338.318 327.684 395.528 326.937 400.669 329.286C402.657 330.195 404.207 332.253 404.942 334.265C405.798 336.605 405.709 339.086 404.482 341.278C403.143 343.672 400.883 344.722 398.378 345.503C388.443 345.521 330.43 346.676 325.769 344.465C323.672 343.47 321.989 341.813 321.336 339.545C320.719 337.405 320.907 334.808 322.034 332.864C323.595 330.173 326.153 328.962 329.023 328.132Z"/><path transform="scale(0.5 0.5)" d="M447.516 328.101C457.961 327.831 511.919 326.736 517.997 329.168C520.071 329.998 521.686 331.957 522.461 334.011C523.304 336.244 523.315 338.972 522.195 341.114C520.814 343.754 518.428 344.707 515.712 345.493C506.765 345.676 449.019 346.527 444.51 344.671C442.645 343.903 441.257 342.285 440.549 340.424C439.682 338.15 439.682 335.202 440.796 333.012C442.208 330.238 444.671 328.987 447.516 328.101Z"/><path transform="scale(0.5 0.5)" d="M361.941 362.151C371.617 361.263 380.216 368.3 381.258 377.96C382.301 387.62 375.401 396.33 365.759 397.527C359.384 398.318 353.077 395.61 349.259 390.444C345.441 385.277 344.704 378.454 347.332 372.591C349.96 366.729 355.544 362.739 361.941 362.151Z"/><path transform="scale(0.5 0.5)" d="M479.421 362.276C489.054 361.07 497.867 367.834 499.194 377.451C500.521 387.068 493.869 395.966 484.269 397.414C477.951 398.367 471.608 395.847 467.666 390.819C463.723 385.79 462.79 379.029 465.224 373.121C467.657 367.212 473.08 363.07 479.421 362.276Z"/><path fill="#626A72" transform="scale(0.5 0.5)" d="M271.436 319.041C251.871 296.346 241.049 267.414 240.916 237.45C241.004 160.468 305.228 92.1713 381.581 86.7681C394.392 85.8615 407.446 86.1861 420.292 86.1963L484.524 86.3251C496.008 86.2169 507.492 86.2715 518.974 86.4891C518.983 122.871 516.108 131.867 547.183 154.688C571.512 172.554 604.407 192.266 602.934 226.232C601.873 257.151 587.639 301.992 570.255 327.421C564.706 320.188 555.709 309.344 551.321 301.875C538.805 283.452 531.075 262.203 528.827 240.046C528.262 234.458 528.454 221.519 526.021 217.471C516.088 200.943 503.564 213.271 495.789 220.551L480.577 234.819C472.367 242.52 462.179 253.226 450.367 253.985C438.138 254.77 424.253 254.44 411.847 254.432L340.024 254.384C329.798 254.386 318.373 253.918 308.237 254.803C285.777 256.765 281.538 277.482 277.082 295.561C275.154 303.377 273.272 311.203 271.436 319.041Z"/><path fill="#494F54" transform="scale(0.5 0.5)" d="M484.524 86.3251C496.008 86.2169 507.492 86.2715 518.974 86.4891C518.983 122.871 516.108 131.867 547.183 154.688C571.512 172.554 604.407 192.266 602.934 226.232C601.873 257.151 587.639 301.992 570.255 327.421C564.706 320.188 555.709 309.344 551.321 301.875C551.395 301.714 551.495 301.563 551.544 301.393C553.089 296.023 555.147 290.842 556.791 285.488C561.047 271.621 564.425 255.923 564.254 241.435C563.866 208.666 539.558 189.269 514.663 172.343C507.641 167.568 499.627 163.024 493.598 157.02C490.028 153.465 487.096 149.138 485.669 144.272C482.974 135.086 484.469 98.1564 484.524 86.3251Z"/><path fill="#FBCEAF" transform="scale(0.5 0.5)" d="M506.792 546.417L507.329 547.045C507.73 553.141 507.389 560.17 507.431 566.365C507.499 576.327 507.765 586.251 506.126 596.118C502.431 618.19 490.116 637.889 471.891 650.876C453.249 664.276 429.962 669.526 407.373 665.421C384.436 661.305 365.51 648.813 352.285 629.744C334.058 602.63 337.911 578.575 337.985 547.143C355.369 558.114 374.749 565.54 395.012 568.997C431.941 575.612 475.763 568.071 506.792 546.417Z"/><path fill="#FBCEAF" transform="scale(0.5 0.5)" d="M265.925 348.007C266.92 349.663 266.564 402.908 266.567 409.107C259.413 407.29 257.034 406.355 251.494 401.304C248.586 398.22 246.788 395.647 245.105 391.756C241.682 383.772 241.636 374.743 244.978 366.725C249.086 356.62 256.394 351.972 265.925 348.007Z"/><path fill="#FBCEAF" transform="scale(0.5 0.5)" d="M579.044 348.171C582.81 349.591 586.592 351.521 589.764 354.019C596.247 359.171 600.412 366.691 601.341 374.92C602.464 384.544 599.659 392.614 593.688 400.048C588.321 405.283 586.116 406.643 579.077 408.935L579.044 348.171Z"/></svg>