<?xml version="1.0" encoding="utf-8" ?><svg xmlns="http://www.w3.org/2000/svg" xmlns:xlink="http://www.w3.org/1999/xlink" width="512" height="512" viewBox="0 0 512 512"><path transform="scale(0.5 0.5)" d="M199.222 161.213L636.211 161.257L782.332 161.152L816.843 161.132C833.506 161.103 845.291 159.659 858.941 171.24C866.996 178.101 872.015 187.866 872.905 198.41C873.695 208.319 873.241 225.335 873.266 235.723L873.184 310.116L873.143 526.026L873.354 736.982L873.319 800.114C873.322 811.781 873.806 823.965 873.033 835.544C871.513 858.297 853.934 871.937 832.465 873.293L400.269 873.264L263.823 873.284L221.506 873.308C204.842 873.343 187.982 875.513 174.556 864.217C167.152 857.988 160.307 848.485 159.691 838.544C158.96 826.722 159.254 814.657 159.236 802.862L159.216 736.157L159.309 531.74L159.255 303.795L159.132 234.643C159.103 225.035 158.52 208.756 159.153 199.593C159.7 191.084 162.969 182.978 168.478 176.471C176.477 166.99 187.019 162.2 199.222 161.213Z"/><path fill="#DEF4F9" transform="scale(0.5 0.5)" d="M263.76 305.845C264.061 304.889 263.818 305.379 264.604 304.44C272.057 303.927 283.783 304.27 291.402 304.59C291.642 308.269 292.003 310.174 294.893 312.778C296.475 314.203 298.764 315.397 300.925 315.484C308.706 315.797 316.619 315.731 324.408 315.744L366.139 315.759L490.413 315.687L852.859 315.973C852.161 355.084 852.687 395.142 852.632 434.347L852.6 684.687L852.637 784.498L852.704 815.898C852.728 830.357 855.185 848.573 836.486 852.313C828.774 853.855 814.744 853.018 806.415 853.009L748.91 852.942C734.871 852.924 721.544 849.097 722.032 867.444L694.466 867.471C694.518 859.768 694.377 857.223 687.405 853.126C672.705 852.74 657.306 852.977 642.547 852.981L566.888 852.99L334.111 852.997L241.585 853.006L214.896 853.049C209.172 853.067 203.293 853.246 197.607 852.755C188.168 851.94 180.496 843.983 180.116 834.511C179.753 825.444 179.847 816.414 179.845 807.353L179.86 760.157L179.841 616.414L179.862 416.349L179.824 349.111C179.812 338.547 179.449 326.146 179.78 315.803L228.734 315.819C232.339 315.817 236.147 315.975 239.734 315.8C249.809 315.311 260.507 318.247 263.76 305.845Z"/><path transform="scale(0.5 0.5)" d="M530.37 339.64C530.783 339.601 531.197 339.566 531.61 339.535C537.401 339.101 544.773 339.367 550.741 339.376L582.537 339.386L607.098 339.395C618.826 339.387 630.331 338.181 639.973 346.431C653.166 357.718 651.007 372.148 651.025 387.993L651.041 420.631C651.04 428.588 650.992 436.622 651.028 444.56C651.084 456.948 651.879 467.932 642.92 477.798C635.136 486.37 626.136 486.917 615.474 487.391C615.967 487.77 616.457 488.154 616.943 488.542C653.76 517.701 672.179 555.265 677.573 601.373C682.414 597.073 683.705 597.181 690.147 597.115C699.395 597.139 708.69 596.947 717.935 597.061C723.283 597.127 731.657 596.148 735.553 600.201C737.495 602.184 738.556 604.865 738.498 607.64C738.46 610.35 737.327 612.929 735.358 614.79C733.842 616.239 731.939 617.217 729.879 617.606C726.375 618.261 716.57 618.072 712.343 618.044C702.676 617.978 692.458 618.194 682.85 617.783C681.324 616.875 679.503 615.48 678.034 614.421C675.613 652.521 670.397 670.314 650.711 703.037C650.853 705.937 650.896 708.863 650.908 711.767C651.006 735.564 650.996 759.362 651.01 783.16C650.908 790.346 651.302 797.735 649.569 804.779C647.451 813.39 639.864 821.389 631.68 824.562C624.372 827.396 616.168 827.003 608.514 827.001L588.75 826.96L554.921 827.008C547.65 827.034 534.633 827.556 527.968 825.911C522.652 824.607 517.788 821.891 513.888 818.051C502.506 806.686 505.055 789.536 505.084 774.106C473.364 770.022 444.413 761.268 419.16 740.651C408.677 740.348 396.677 741.259 386.34 740.244C376.889 739.316 373.478 729.483 380.285 722.753C383.975 719.105 391.581 719.897 396.479 719.902C323.983 634.012 352.38 509.309 455.734 464.261C471.841 457.241 487.878 454.572 505.232 452.791L505.178 395.294C505.162 370.589 500.633 347.659 530.37 339.64Z"/><path fill="#BAE76C" transform="scale(0.5 0.5)" d="M446.739 734.935C399.786 707.842 372.66 656.109 377.076 602.08C381.491 548.051 416.658 501.41 467.387 482.3C518.116 463.19 575.316 475.037 614.281 512.724C665.17 561.943 671.38 641.378 628.758 697.907C586.136 754.436 508.058 770.319 446.739 734.935Z"/><path fill="#A4DE41" transform="scale(0.5 0.5)" d="M614.281 512.724C665.17 561.943 671.38 641.378 628.758 697.907C586.136 754.436 508.058 770.319 446.739 734.935C452.198 734.072 474.215 741.573 482.118 742.603C531.738 749.069 586.141 726.511 615.447 685.387C644.178 644.497 649.829 591.695 630.403 545.651C628.866 541.916 626.994 537.584 625.079 534.055C621.177 526.866 615.521 521.123 614.281 512.724Z"/><path fill="#DEF4F9" transform="scale(0.5 0.5)" d="M513.735 541.636C514.58 541.596 515.425 541.576 516.27 541.575C535.488 541.664 533.432 562.585 533.149 575.659C532.997 582.721 533.115 589.923 533.122 596.99C543.971 597.15 555.149 596.998 566.098 596.902C577.608 595.915 589.787 601.243 588.974 614.815C587.897 632.798 570.771 631.198 558.574 631.133C550.073 631.045 541.571 631.034 533.07 631.099L533.254 656.122C533.345 670.157 535.415 681.745 518.952 686.495C513.26 686.694 508.273 686.132 503.895 681.904C501.754 679.804 500.236 677.153 499.508 674.244C498.339 669.658 498.931 638.191 498.906 631.066C490.858 630.934 461.454 631.793 455.846 630.428C453.178 629.773 450.715 628.468 448.676 626.628C441.877 620.598 440.289 609.339 446.934 602.593C449.418 600.113 452.537 598.365 455.95 597.542C460.847 596.378 491.986 596.983 499.008 597.025L498.884 572.146C498.832 558.971 497.308 545.39 513.735 541.636Z"/><defs><linearGradient id="gradient_0" gradientUnits="userSpaceOnUse" x1="630.44946" y1="413.91901" x2="525.15332" y2="410.45676"><stop offset="0" stop-color="#BE83E0"/><stop offset="1" stop-color="#D3A4E9"/></linearGradient></defs><path fill="url(#gradient_0)" transform="scale(0.5 0.5)" d="M533.34 360.08C549.106 359.546 565.037 359.975 580.82 359.96C593.104 359.949 605.727 359.349 617.975 360.046C620.288 360.177 622.882 360.442 625.04 361.295C626.97 362.058 628.801 364.241 629.542 366.157C631.042 370.039 630.532 446.447 630.214 455.622C630.157 457.273 630.169 459.21 629.463 460.725C628.1 463.651 626.065 464.771 623.17 465.925C615.406 467.241 589.268 466.783 580.514 465.785C579.015 465.614 569.383 461.45 566.742 460.59C553.55 456.292 539.857 453.716 526.005 452.927L525.888 399.134C525.869 391.887 525.787 384.604 525.827 377.358C525.873 369.102 524.747 363.913 533.34 360.08Z"/><path fill="#FEA85E" transform="scale(0.5 0.5)" d="M629.904 727.803L630.023 775.778C630.02 783.224 630.262 790.821 629.688 798.223C629.395 801.999 626.509 804.215 623.448 805.936C614.255 806.101 605.06 806.174 595.866 806.153L554.534 806.26C521.568 806.334 525.768 807.349 525.913 774.05C551.358 772.619 572.379 765.532 594.868 754.076C608.854 746.069 617.868 738.441 629.904 727.803Z"/><path fill="#FE9338" transform="scale(0.5 0.5)" d="M629.904 727.803L630.023 775.778C630.02 783.224 630.262 790.821 629.688 798.223C629.395 801.999 626.509 804.215 623.448 805.936C614.255 806.101 605.06 806.174 595.866 806.153C595.24 801.455 595.587 796.104 595.508 791.372C595.314 779.789 596.428 765.348 594.868 754.076C608.854 746.069 617.868 738.441 629.904 727.803Z"/><path transform="scale(0.5 0.5)" d="M232.098 509.668C235.934 509.465 239.782 509.458 243.633 509.486C270.453 509.683 297.364 508.984 324.156 509.812C328.31 509.94 334.67 512.084 338.054 514.436C353.216 524.976 351.993 539.188 351.964 555.583L352.004 581.842L352.057 610.693C352.069 620.522 353.001 632.373 348.223 641.207C342.901 651.048 334.459 655.747 323.666 657.342C319.667 657.758 312.126 657.576 307.943 657.571L279.158 657.536L248.583 657.541C242.427 657.536 235.997 657.699 229.889 657.058C218.031 655.801 205.668 644.018 204.714 631.845C203.529 616.725 204.065 599.788 204.056 584.39L204.054 554.983C204.062 548.208 203.786 541.488 204.787 534.769C206.935 520.351 218.187 511.521 232.098 509.668Z"/><path fill="#BAE76C" transform="scale(0.5 0.5)" d="M296.551 530.34C301.943 530.293 307.725 530.483 313.075 530.141C318.721 529.779 330.759 529.9 330.922 538.246C331.495 567.425 330.996 596.844 331.092 626.054C331.105 631.415 328.804 633.773 324.4 636.392L296.29 636.466L254.714 636.549C248.757 636.559 230.994 638.146 227.129 633.168C223.851 628.946 224.843 618.444 224.828 612.812L224.796 582.595L224.798 552.897C224.809 542.773 222.352 536.22 231.738 530.561C250.421 529.574 277.238 530.322 296.551 530.34Z"/><path fill="#A4DE41" transform="scale(0.5 0.5)" d="M296.551 530.34C301.943 530.293 307.725 530.483 313.075 530.141C318.721 529.779 330.759 529.9 330.922 538.246C331.495 567.425 330.996 596.844 331.092 626.054C331.105 631.415 328.804 633.773 324.4 636.392L296.29 636.466C296.675 633.474 296.547 627.922 296.649 624.736C296.962 614.911 296.769 605.062 296.723 595.236C296.623 573.663 297.059 551.896 296.551 530.34Z"/><path transform="scale(0.5 0.5)" d="M232.032 339.668C238.27 339.246 246.235 339.445 252.589 339.446L287.435 339.443L310.923 339.454C315.776 339.459 321.234 339.275 326.08 339.893C337.712 341.375 348.833 351.452 351.106 363.007C352.453 369.858 352.022 378.728 352.024 385.784L352.022 417.193C352.015 431.062 352.471 446.246 351.52 459.995C350.542 474.141 338.903 484.498 325.123 486.922C319.346 487.565 311.496 487.421 305.601 487.432L276.677 487.464C264.538 487.471 252.391 487.51 240.256 487.449C231.927 487.406 224.073 486.427 217.127 481.509C202.243 470.97 204.084 455.586 204.083 439.491L204.097 409.362C204.109 394.956 203.606 379.233 204.791 364.969C205.939 351.161 218.758 341.509 232.032 339.668Z"/><path fill="#FE8486" transform="scale(0.5 0.5)" d="M295.438 359.998C306.696 359.951 324.892 356.458 330.955 366.886C331.748 380.736 331.097 399.486 331.201 413.866C331.315 423.793 331.327 433.72 331.239 443.647C331.195 448.312 331.252 453.366 330.853 458.009C330.67 460.145 329.593 461.786 328.222 463.379C325.778 466.219 320.993 466.529 317.414 466.553C310.44 466.598 303.391 466.536 296.395 466.493L253.793 466.51C246.799 466.536 239.444 466.84 232.513 466.21C229.026 465.704 225.278 461.638 225.24 458.166C224.915 428.279 224.417 396.987 225.036 367.191C227.294 363.143 228.066 362.439 232.082 360.108C252.232 359.551 275.097 360.002 295.438 359.998Z"/><path fill="#FE636B" transform="scale(0.5 0.5)" d="M295.438 359.998C306.696 359.951 324.892 356.458 330.955 366.886C331.748 380.736 331.097 399.486 331.201 413.866C331.315 423.793 331.327 433.72 331.239 443.647C331.195 448.312 331.252 453.366 330.853 458.009C330.67 460.145 329.593 461.786 328.222 463.379C325.778 466.219 320.993 466.529 317.414 466.553C310.44 466.598 303.391 466.536 296.395 466.493C297.109 459.847 296.485 443.577 296.542 436.208L296.883 388.809C296.871 381.516 297.134 366.486 295.438 359.998Z"/><path transform="scale(0.5 0.5)" d="M232.786 679.68C235.807 679.5 239.335 679.518 242.462 679.561C270.145 679.944 298.122 678.72 325.73 680.182C330.16 680.416 335.814 682.904 339.29 685.469C353.426 695.901 352.02 710.112 352.027 725.723L352.011 755.113L352.008 781.84C352.006 788.471 352.319 795.226 351.222 801.771C348.757 816.478 337.546 824.98 323.41 826.824C320.079 827.194 313.038 827.017 309.472 827.021L283.272 827.023L250.153 827.005C243.602 827 235.663 827.325 229.26 826.379C217.06 824.576 205.613 813.622 204.733 801.045C203.715 786.506 204.204 771.57 204.179 756.93L204.171 726.313C204.218 710.136 202.369 695.303 217.434 685.195C222.708 681.656 226.433 680.376 232.786 679.68Z"/><path fill="#FEE07B" transform="scale(0.5 0.5)" d="M296.375 806.232L257.239 806.284C252.311 806.311 247.202 806.372 242.286 806.354C230.853 806.312 225.055 806.177 224.953 793.072L224.919 735.628C224.921 726.661 224.704 717.493 225.184 708.576C225.43 703.999 229.707 700.748 234.092 700.492C241.008 700.087 247.828 700.303 254.747 700.318L295.884 700.379C302.717 700.369 318.35 699.945 324.46 700.561C326.692 701.969 330.676 704.647 330.779 707.669C331.659 733.461 330.932 759.45 331.169 785.288C331.212 789.96 331.19 794.937 330.851 799.554C328.754 802.826 327.728 803.958 324.37 805.967C315.158 806.303 305.616 806.207 296.375 806.232Z"/><path fill="#FECF5D" transform="scale(0.5 0.5)" d="M295.884 700.379C302.717 700.369 318.35 699.945 324.46 700.561C326.692 701.969 330.676 704.647 330.779 707.669C331.659 733.461 330.932 759.45 331.169 785.288C331.212 789.96 331.19 794.937 330.851 799.554C328.754 802.826 327.728 803.958 324.37 805.967C315.158 806.303 305.616 806.207 296.375 806.232C296.56 803.688 296.49 801.008 296.531 798.429C296.981 770.296 296.644 742.1 296.609 713.958C296.604 710.134 296.769 703.946 295.884 700.379Z"/><path transform="scale(0.5 0.5)" d="M686.921 552.232C712.449 551.629 738.357 552.565 763.925 552.109C767.593 552.044 774.735 551.976 777.53 554.604C784.722 561.368 781.071 571.652 771.097 572.969L712.978 573.024C704.578 573.032 693.733 573.333 685.5 572.814C673.828 572.077 670.769 553.493 686.921 552.232Z"/><path transform="scale(0.5 0.5)" d="M685.853 380.161C713.087 378.942 741.62 380.731 768.958 380.156C783.552 379.849 785.893 397.958 771.401 400.843C743.511 401.789 714.551 400.29 686.587 400.8C675.036 401.01 670.073 382.655 685.853 380.161Z"/><path transform="scale(0.5 0.5)" d="M685.653 720.142C714.138 719.261 743.925 720.366 772.46 720.279C781.698 720.251 786.511 738.596 771.345 740.648C743.531 741.32 715.269 740.53 687.424 740.626C674.302 740.671 671.063 723.011 685.653 720.142Z"/><path transform="scale(0.5 0.5)" d="M387.038 380.224C412.705 379.26 439.441 380.817 465.202 380.123C468.758 380.027 472.911 380.07 475.965 382.067C478.256 383.543 479.839 385.897 480.342 388.576C481.696 395.422 477.056 399.773 470.652 400.808C453.5 401.323 435.294 400.588 418.003 400.902C407.361 400.714 396.686 401.271 386.055 400.638C378.476 400.186 374.129 390.232 378.781 384.183C380.916 381.408 383.715 380.616 387.038 380.224Z"/><path transform="scale(0.5 0.5)" d="M686.166 425.219C694.783 424.917 727.307 423.646 733.52 426.748C735.632 427.802 737.093 429.602 737.761 431.859C738.531 434.455 738.491 438.414 737.068 440.803C735.317 443.741 732.146 445.222 728.942 445.901L701.386 446.001C693.226 446.027 677.534 448.359 676.158 436.986C675.298 429.876 679.427 426.146 686.166 425.219Z"/><path transform="scale(0.5 0.5)" d="M684.388 765.161C691.843 764.801 728.556 763.78 733.117 766.328C735.473 767.645 737.201 769.991 737.939 772.569C738.725 775.313 738.356 777.972 736.938 780.434C735.359 783.176 733.002 784.551 730.039 785.4C722.231 785.795 687.387 786.588 681.982 784.439C679.571 783.48 677.813 781.451 676.945 779.038C675.995 776.401 675.959 772.905 677.351 770.412C678.913 767.617 681.435 766.117 684.388 765.161Z"/><path transform="scale(0.5 0.5)" d="M387.163 425.195C395.675 424.957 426.776 423.688 433.068 426.934C435.411 428.143 437.424 430.069 438.077 432.697C438.772 435.499 437.827 438.852 436.216 441.183C434.315 443.935 431.566 445.27 428.367 445.89L401.948 445.983C392.32 446.007 369.967 447.754 378.872 429.173C380.035 426.746 384.671 425.533 387.163 425.195Z"/><path transform="scale(0.5 0.5)" d="M384.886 765.143C392.412 764.782 427.231 763.968 432.032 765.917C434.508 766.923 436.498 769.014 437.46 771.494C438.468 774.093 438.429 777.395 437.19 779.916C435.752 782.843 432.904 784.353 429.977 785.429C421.879 785.803 389.254 786.659 383.355 784.726C381.076 783.98 378.995 781.872 378.031 779.713C376.884 777.145 376.766 773.508 377.884 770.908C379.151 767.959 381.983 766.166 384.886 765.143Z"/><path fill="#8C99A4" transform="scale(0.5 0.5)" d="M737.161 166.533L763.32 166.886L763.338 167.684C763.458 172.41 764.272 177.035 768.638 179.71C777.117 184.904 822.938 179.011 836.736 182.094C840.564 182.949 844.094 184.769 846.89 187.541C849.625 190.255 851.228 193.61 851.959 197.365C853.794 206.788 852.685 220.707 852.676 230.6L852.627 295.157L479.474 295.199L360.971 295.181C341.699 295.194 322.423 295.176 303.153 295.305C296.055 295.353 293.288 298.018 291.402 304.59C283.783 304.27 272.057 303.927 264.604 304.44C263.818 305.379 264.061 304.889 263.76 305.845C263.398 301.229 260.845 296.225 255.733 295.706C247.017 294.821 237.94 295.17 229.145 295.177L179.804 295.07L179.676 235.364C179.533 192.3 173.793 178.265 224.963 181.539C228.008 181.733 232.454 181.56 235.633 181.569L291.514 181.588L585.964 181.609L680.054 181.62L707.104 181.589C721 181.69 736.698 185.271 737.161 166.533Z"/><path transform="scale(0.5 0.5)" d="M231.281 205.972C249.144 203.115 265.923 215.329 268.695 233.204C271.466 251.08 259.174 267.801 241.285 270.488C223.516 273.157 206.931 260.964 204.178 243.208C201.424 225.452 213.538 208.809 231.281 205.972Z"/><path fill="#FE8486" transform="scale(0.5 0.5)" d="M233.356 226.332C237.602 225.249 242.103 226.543 245.125 229.717C248.147 232.891 249.219 237.449 247.929 241.637C246.639 245.826 243.187 248.991 238.903 249.914C232.45 251.305 226.07 247.272 224.559 240.845C223.047 234.419 226.959 227.965 233.356 226.332Z"/><path transform="scale(0.5 0.5)" d="M413.226 205.535C431.045 203.937 446.831 216.981 448.62 234.783C450.409 252.584 437.536 268.509 419.754 270.489C408.081 271.789 396.609 266.718 389.714 257.209C382.819 247.7 381.565 235.219 386.43 224.528C391.294 213.837 401.527 206.584 413.226 205.535Z"/><path fill="#BAE76C" transform="scale(0.5 0.5)" d="M413.508 226.306C419.948 224.894 426.316 228.956 427.752 235.39C429.187 241.824 425.149 248.207 418.72 249.666C412.258 251.132 405.834 247.069 404.391 240.601C402.949 234.134 407.036 227.725 413.508 226.306Z"/><path transform="scale(0.5 0.5)" d="M320.269 206.122C338.089 202.931 355.096 214.867 358.154 232.71C361.211 250.553 349.148 267.47 331.283 270.394C313.606 273.287 296.905 261.379 293.88 243.724C290.854 226.069 302.638 209.279 320.269 206.122Z"/><path fill="#FEE07B" transform="scale(0.5 0.5)" d="M322.919 226.252C327.149 225.135 331.653 226.383 334.706 229.517C337.759 232.651 338.888 237.186 337.66 241.385C336.432 245.585 333.039 248.798 328.778 249.794C322.32 251.304 315.846 247.348 314.244 240.911C312.642 234.475 316.506 227.946 322.919 226.252Z"/></svg>