<?xml version="1.0" encoding="utf-8" ?><svg xmlns="http://www.w3.org/2000/svg" xmlns:xlink="http://www.w3.org/1999/xlink" width="512" height="512" viewBox="0 0 512 512"><path fill="#1A1A1A" transform="matrix(1 0 0 1 0 -3.05176e-05)" d="M250.301 32.109C286.165 30.7224 321.442 41.5167 350.389 62.7348C384.595 87.6752 407.509 125.167 414.103 166.982C415.803 177.859 416.806 192.937 415.224 203.882C410.041 239.733 387.227 275.306 366.355 303.907C379.838 304.096 393.367 303.843 406.854 303.941C410.903 303.971 415.799 303.676 419.746 304.49C422.497 305.057 425.026 306.403 427.032 308.368C428.688 309.94 429.991 311.847 430.855 313.961C433.037 319.363 435.539 327.699 437.426 333.358L449.807 370.526L469.407 429.303L475.434 447.376C476.801 451.473 479.972 459.859 480.023 463.8C480.109 468.115 478.436 472.279 475.388 475.335C472.915 477.847 469.66 479.441 466.159 479.855C461.967 480.386 449.47 480.099 444.948 480.097L403.083 480.09L261.875 480.09L112.809 480.09L68.0483 480.091C63.156 480.091 58.2133 480.074 53.3253 480.103C47.1145 480.139 41.9468 480.236 37.114 475.777C33.954 472.917 32.1107 468.882 32.0175 464.621C31.8405 458.91 39.4968 438.599 41.7722 431.787L58.649 381.165L73.3324 337.115C75.6262 330.23 78.4989 320.696 81.1006 314.087C81.8369 312.18 82.9427 310.438 84.3544 308.96C90.7147 302.224 99.9932 304.124 108.413 303.953C120.798 303.703 133.395 304.293 145.768 303.849C124.039 275.909 97.7945 232.119 96.1023 195.887C94.2402 156.016 110.566 113.795 137.459 84.4344C167.221 51.9416 206.332 34.0097 250.301 32.109Z"/><path fill="#FE5555" transform="matrix(1 0 0 1 0 -3.05176e-05)" d="M252.126 64.109C254.124 64.0135 256.124 63.9891 258.123 64.0361C292.377 64.603 324.971 78.8953 348.594 103.708C370.84 126.864 384.676 159.888 383.931 192.174C382.608 249.484 298.645 337.268 258.161 376.233L256.032 378.348C253.477 375.634 249.742 372.29 246.995 369.602C240.791 363.549 234.683 357.399 228.674 351.152C194.66 315.634 130.364 243.79 128.119 193.965C126.684 162.111 140.283 128.986 161.598 105.66C185.307 79.7152 217.212 65.673 252.126 64.109Z"/><path fill="#1A1A1A" transform="matrix(1 0 0 1 0 -3.05176e-05)" d="M255.088 128.092C259.502 127.823 263.98 129.378 267.122 132.513C269.212 134.61 270.686 137.241 271.383 140.119C272.266 143.761 271.987 151.144 271.986 155.19L271.978 176.004C279.228 176.108 286.599 175.919 293.846 175.999C297.951 176.045 304.197 175.68 308.01 176.626C310.692 177.29 313.153 178.645 315.148 180.556C321.356 186.492 321.521 196.945 315.508 203.078C313.501 205.132 310.97 206.597 308.19 207.316C304.389 208.285 296.239 207.984 292.082 207.977L271.974 207.994L271.993 229.109C272.001 232.98 272.223 239.883 271.478 243.458C270.973 245.89 269.9 248.167 268.346 250.105C265.307 253.898 261.574 255.422 256.871 255.912C252.276 256.042 248.026 254.641 244.751 251.326C242.802 249.351 241.405 246.899 240.701 244.215C239.723 240.403 240.002 231.978 240.007 227.604L240.054 207.991L219.052 207.991C215.011 207.996 207.593 208.274 203.937 207.343C201.207 206.636 198.71 205.228 196.693 203.259C190.578 197.266 190.562 186.727 196.648 180.725C198.678 178.721 201.216 177.307 203.988 176.635C207.633 175.744 215.307 175.997 219.369 176L240.032 176.021L240.001 155.551C239.994 151.411 239.764 144.104 240.578 140.33C241.1 137.879 242.21 135.591 243.811 133.662C246.814 130.026 250.524 128.554 255.088 128.092Z"/><path fill="#56FE56" transform="matrix(1 0 0 1 0 -3.05176e-05)" d="M340.71 335.984L404.5 335.999C413.008 362.444 422.199 389.178 430.992 415.557C434.563 426.249 438.386 437.271 441.769 447.992L70.1312 447.99C74.5536 436.094 78.9578 421.665 83.0135 409.497L107.504 335.971L171.418 336.02C193.515 361.694 217.105 386.044 242.066 408.944C246.548 413.102 250.169 416.102 256.695 415.869C263.288 415.634 266.856 411.812 271.375 407.617C274.137 405.053 276.9 402.431 279.658 399.853C294.577 385.769 308.976 371.146 322.828 356.011C328.905 349.387 334.684 342.572 340.71 335.984Z"/></svg>