<?xml version="1.0" encoding="utf-8" ?><svg xmlns="http://www.w3.org/2000/svg" xmlns:xlink="http://www.w3.org/1999/xlink" width="512" height="512" viewBox="0 0 512 512"><path transform="scale(0.5 0.5)" d="M283.303 144.05C285.804 136.325 289.524 124.022 293.402 117.158C296.644 111.462 301.21 106.631 306.715 103.074C333.223 85.6684 368.391 105.382 385.146 94.7428C390.176 91.5488 393.858 86.8683 397.544 82.2816C409.456 67.4618 420.43 50.8619 440.684 47.5316C470.884 42.5657 494.992 73.028 514.797 70.3565C526.12 68.8291 543.573 56.5977 555.219 51.6948C558.75 50.2083 562.66 49.2977 566.353 48.2696C580.778 46.0333 588.834 46.333 601.475 55.0382C607.232 59.0033 610.02 63.1372 614.625 67.1334C622.082 76.1213 630.698 88.4454 640.1 95.2281C646.944 100.165 658.919 97.6481 666.651 96.9976C688.159 94.3889 711.344 92.4452 726.822 110.683C735.769 121.226 738.564 135.95 742.711 148.857C746.75 161.43 748.083 170.224 761.913 175.686C778.785 182.35 799.148 184.034 813.219 196.167C826.804 207.822 828.542 223.409 827.203 240.283C826.549 255.384 820.789 275.519 832.382 287.653C850.133 306.584 878.249 319.782 876.047 350.059C875.093 363.172 866.653 379.607 860.744 391.242C851.699 409.053 850.112 413.443 859.623 431.567C868.151 447.817 879.091 465.362 875.586 484.286C871.294 510.664 842.976 520.271 828.536 539.753C826.556 542.779 825.685 547.101 825.455 550.574C823.778 575.816 836.381 606.681 814.422 626.369C804.773 635.02 790.447 639.031 778.23 642.868C766.993 646.396 757.039 647.348 749.751 657.579C753.814 670.194 757.248 682.855 761.173 695.499L794.82 804.05C801.944 827.209 810.224 850.373 816.157 873.757C819.82 888.191 811.177 902.781 797.088 906.928C792.393 908.31 786.098 908.973 781.155 907.688C769.882 903.458 757.596 897.094 746.703 891.847C730.577 884.081 713.861 876.949 697.988 868.902L670.989 919.775C667.003 927.259 663.022 934.889 659.008 942.368C657.565 945.055 652.473 949.891 651.43 951.581C645.729 955.893 642.809 957.167 635.805 958.367C629.458 959.167 623.018 958.061 617.301 955.192C604.23 948.656 602.219 935.942 598.252 923.231L589.471 895.66L560.777 805.506C557.327 794.551 554.252 783.122 550.695 772.303C538.483 766.427 524.585 757.662 511.965 754.954C496.096 759.63 488.502 765.458 474.026 772.718C457.358 826.81 440.314 880.785 422.897 934.64C419.748 944.096 415.312 951.384 406.087 955.672C390.079 963.137 372.468 956.836 364.361 940.942C352.188 917.074 338.304 893.162 326.659 868.999C321.555 870.87 313.548 875.061 308.254 877.54C294.908 883.694 281.636 890.008 268.442 896.481C261.075 900.068 248.977 906.438 241.053 908.045C223.528 911.6 205.086 896.078 207.353 877.645C208.876 865.264 216.447 846.781 220.547 833.557L256.103 719.016C261.721 700.855 268.135 682.635 273.017 664.286C273.576 662.184 274.518 658.966 274.045 656.834C272.075 647.968 242.1 641.444 234.101 638.824C228.657 637.041 223.218 634.927 218.228 632.093C196.89 619.974 195.517 599.511 197.784 577.172C199.15 563.705 202.238 550.088 194.395 537.888C191.038 532.664 186.355 528.615 181.626 524.677C167.529 512.936 152.347 502.477 149.07 483.097C144.01 453.176 173.717 429.668 171.33 410.388C170.253 401.69 164.91 393.198 161.057 385.506C156.954 377.313 152.835 368.806 150.421 359.943C142.096 329.382 162.583 313.692 183.231 295.739C189.426 290.352 196.264 284.834 198.429 276.51C200.184 269.761 199.366 262.848 198.697 256.012C197.132 240.013 194.105 221.258 202.56 206.634C213.258 188.13 236.651 183.041 255.803 177.89C276.572 171.371 277.833 163.511 283.303 144.05Z"/><path fill="#FAD573" transform="scale(0.5 0.5)" d="M446.701 72.0966C465.545 72.6355 482.438 89.0758 500.165 94.5438C521.449 101.109 538.824 88.6647 556.868 79.2426C562.748 76.1726 570.09 72.1537 576.934 72.4977C594.984 73.4049 613.377 114.984 636.677 121.854C656.961 127.834 680.895 116.364 698.134 122.167C702.237 123.548 705.758 125.999 708.329 129.494C716.553 140.671 719.639 163.653 726.537 177.221C737.367 198.524 759.614 201.276 780.142 207.997C785.876 209.874 793.883 212.414 797.829 217.245C809.264 231.247 793.036 271.419 805.57 294.207C815.749 312.712 842.072 325.836 848.948 340.115C850.608 343.562 851.099 347.177 850.566 350.951C848.613 364.765 836.009 381.303 831.057 395.147C821.782 421.076 835.793 438.768 846.418 461.229C848.923 466.523 851.594 473.056 850.632 479.017C848.308 493.415 814.585 512.754 805.416 529.152C793.036 551.293 807.355 584.139 800.619 601.596C795.53 614.785 761.343 620.732 748.586 626.695C723.879 638.245 721.829 660.013 713.411 683.057C711.206 689.095 708.252 696.012 702.591 699.573C688.646 708.344 652.362 694.462 628.589 708.267C608.745 719.79 600.353 743.966 579.414 753.762C566.598 754.33 544.325 740.09 531.817 734.558C500.728 720.807 486.437 740.861 459.351 751.213C454.708 752.987 449.609 754.35 444.664 753.05C430.271 749.269 413.33 717.995 397.427 708.608C373.883 694.711 338.705 707.964 323.411 700.554C311.797 694.928 307.352 669.615 303.185 658.396C293.331 631.866 279.507 626.111 253.63 618.541C247.38 616.712 240.704 615.036 234.792 612.279C231.411 610.702 227.816 608.527 225.882 605.234C217.406 590.805 228.134 557.969 222.854 538.659C215.452 511.585 181.068 499.877 174.773 481.405C170.67 469.365 184.112 449.772 189.327 438.913C201.419 413.736 197.63 400.311 185.091 376.534C181.76 370.216 178.187 363.85 175.869 357.074C174.151 352.048 173.192 346.313 175.068 341.188C179.685 328.574 210.349 310.524 219.547 293.575C231.366 271.796 216.997 235.359 225.195 219.812C231.208 208.409 255.259 204.935 266.804 201.195C293.516 192.544 299.372 179.03 306.765 153.428C308.748 146.56 310.723 139.524 314.064 133.168C326.94 108.675 364.057 128.592 387.823 121.457C414.807 113.356 423.283 79.2023 446.701 72.0966Z"/><path transform="scale(0.5 0.5)" d="M503.392 134.696C657.101 129.735 785.721 250.335 790.653 404.046C795.585 557.756 674.96 686.353 521.249 691.255C367.579 696.155 239.025 575.571 234.095 421.902C229.164 268.234 349.725 139.656 503.392 134.696Z"/><path fill="#E1E1E0" transform="scale(0.5 0.5)" d="M510.459 160.245C650.046 159.185 764.061 271.491 765.108 411.078C766.155 550.666 653.839 664.67 514.251 665.704C374.682 666.737 260.697 554.439 259.65 414.87C258.603 275.301 370.89 161.306 510.459 160.245Z"/><path transform="scale(0.5 0.5)" d="M502.079 231.764C602.365 226.089 688.272 302.77 693.979 403.055C699.687 503.339 623.034 589.271 522.751 595.011C422.422 600.754 336.442 524.058 330.732 423.727C325.022 323.396 401.746 237.441 502.079 231.764Z"/><path fill="#C5E492" transform="scale(0.5 0.5)" d="M507.368 257.199C593.711 254.39 665.963 322.15 668.694 408.496C671.426 494.842 603.601 567.033 517.253 569.687C431.013 572.338 358.934 504.617 356.206 418.381C353.478 332.144 421.134 260.004 507.368 257.199Z"/><path transform="scale(0.5 0.5)" d="M509.162 300.122C523.076 298.585 535.035 306.198 538.131 319.994C540.124 328.879 539.473 340.027 539.443 349.188L539.288 386.47L576.708 386.543C586.111 386.512 596.22 385.856 605.427 387.499C621.233 390.319 629.516 406.225 625.39 421.09C618.963 444.243 595.046 441.058 576.614 441.029L539.183 441.009C539.502 453.412 539.544 465.845 539.416 478.248C539.198 499.433 543.291 519.866 517.15 526.133C515.822 526.222 514.493 526.281 513.163 526.31C505.831 526.428 498.486 524.507 493.212 519.128C483.198 508.913 485.382 493.276 485.418 480.111L485.497 441.02L448.966 441.018C439.774 441.06 428.013 441.875 419.421 440.027C391.632 434.05 391.588 393.172 419.961 387.579C429.13 385.771 438.154 386.526 447.193 386.538L485.441 386.561L485.441 349.164C485.288 328.655 482.233 304.865 509.162 300.122Z"/><path fill="#EFC765" transform="scale(0.5 0.5)" d="M705.562 151.854C706.582 153.706 706.874 155.201 707.42 157.217L706.317 156.287C705.405 154.35 705.52 154.074 705.562 151.854Z"/><path fill="#FE8383" transform="scale(0.5 0.5)" d="M736.569 693.846C740.288 703.107 745.351 720.704 748.158 730.65L778.961 829.459C782.529 840.485 786.025 851.534 789.451 862.605C790.619 866.43 792.257 870.246 793.031 874.166C793.519 876.635 793.599 879.29 792.347 881.56C791.49 883.114 790.213 884.226 788.537 884.817C779.092 888.149 704.016 840.999 691.88 843.469C687.581 844.344 684.352 848.633 682.168 852.171C678.033 858.868 674.518 866.082 670.813 873.032L651.464 909.412C647.809 916.315 644.382 924.017 639.991 930.369C634.073 938.928 626.236 935.752 623.217 926.795C619.973 917.17 617.247 907.484 614.188 897.847L595.866 840.646C592.654 830.608 589.314 818.829 585.708 809.109C582.304 800.003 579.119 788.967 576.147 779.593C613.02 779.376 618.294 741.153 644.953 729.558C659.504 723.229 693.587 734.037 711.288 724.873C727.408 716.528 730.518 709.893 736.569 693.846Z"/><path fill="#F66D6D" transform="scale(0.5 0.5)" d="M736.569 693.846C740.288 703.107 745.351 720.704 748.158 730.65C742.14 732.617 734.045 748.344 721.805 752.222C702.391 758.374 685.526 753.782 665.551 755.304C640.502 757.213 634.292 783.299 614.626 796.683C604.164 803.803 593.851 803.594 585.708 809.109C582.304 800.003 579.119 788.967 576.147 779.593C613.02 779.376 618.294 741.153 644.953 729.558C659.504 723.229 693.587 734.037 711.288 724.873C727.408 716.528 730.518 709.893 736.569 693.846Z"/><path fill="#FE8383" transform="scale(0.5 0.5)" d="M276.672 730.487C280.238 718.508 283.921 705.291 288.363 693.7C294.298 708.91 298.345 717.567 313.875 724.826C341.153 737.577 372.653 715.506 394.588 740.203C412.727 760.626 418.975 777.061 448.095 779.91C445.449 789.165 442.292 798.556 439.309 807.73C435.844 817.08 433.015 827.143 429.891 836.682C421.675 861.947 414.077 886.309 405.593 911.58C403.355 918.245 399.097 946.587 385.05 930.895C381.299 926.705 376.473 915.694 373.57 910.176L352.521 870.739C348.915 863.946 345.692 856.554 341.401 850.172C339.538 847.401 336.861 843.967 333.345 843.441C319.79 841.414 247.263 887.287 236.381 884.716C234.454 884.261 232.685 883.029 231.667 881.324C230.408 879.218 230.464 876.623 230.965 874.296C231.853 870.173 233.503 865.968 234.789 861.941L244.006 833.681L265.702 765C269.331 753.507 273.27 742.029 276.672 730.487Z"/><path fill="#F66D6D" transform="scale(0.5 0.5)" d="M276.672 730.487C280.238 718.508 283.921 705.291 288.363 693.7C294.298 708.91 298.345 717.567 313.875 724.826C341.153 737.577 372.653 715.506 394.588 740.203C412.727 760.626 418.975 777.061 448.095 779.91C445.449 789.165 442.292 798.556 439.309 807.73C430.256 804.838 423.725 803.948 414.843 799.453C396.022 789.93 388.238 767.904 370.839 758.304C360.203 752.436 343.878 755.128 332.176 755.796C313.602 756.855 296.313 753.056 284.423 737.624C282.543 735.192 279.46 731.932 276.672 730.487Z"/><path fill="#505254" fill-opacity="0.015686275" transform="scale(0.5 0.5)" d="M275.666 156.795L276.247 157.556C275.738 159.171 275.53 159.994 275.186 161.655C274.167 159.292 274.704 158.796 275.666 156.795Z"/><path transform="scale(0.5 0.5)" d="M221.476 637.027L221.994 636.788C223.781 637.257 224.043 637.552 225.506 638.601C223.345 638.224 222.72 638.388 221.476 637.027Z"/></svg>