<?xml version="1.0" encoding="utf-8" ?><svg xmlns="http://www.w3.org/2000/svg" xmlns:xlink="http://www.w3.org/1999/xlink" width="512" height="512" viewBox="0 0 512 512"><path transform="scale(0.5 0.5)" d="M237.955 295.394C235.019 287.789 230.956 277.022 229.208 269.128C221.934 236.297 226.651 202.649 240.12 172.2C258.702 130.891 292.741 98.5143 334.929 82.023C370.645 68.3882 399.414 70.5108 436.805 70.6539L535.463 70.7877C535.32 86.4796 533.544 106.18 536.88 121.249C538.664 129.309 557.037 142.267 563.665 146.981C591.759 166.964 619.577 187.965 618.388 226.312C617.925 257.999 603.01 307.772 585.218 333.894C592.206 336.943 598.088 339.593 603.494 345.12C617.761 359.707 621.695 380.514 613.213 399.037C608.148 409.83 599.031 418.189 587.841 422.302C584.964 423.354 582.098 423.994 579.069 424.44C574.378 470.572 558.673 502.049 524.052 533.15L524.116 576.546C529.909 576.494 535.88 577.144 541.657 577.69C578.197 581.216 613.322 593.621 643.97 613.827L643.983 592.376L643.929 542.47L643.874 436.928C643.961 430.448 643.954 423.968 643.853 417.489C643.353 395.493 643.182 397.427 651.12 376.912L663.385 345.03C675.907 311.844 688.774 278.789 701.984 245.871C706.155 235.53 708.951 220.959 719.377 215.524C731.21 209.355 743.049 213.158 749.298 224.893C754.001 236.154 758.908 251.234 763.708 261.481C766.669 270.122 770.525 279 773.805 287.631C784.443 315.62 795.664 343.441 806.262 371.437C808.684 377.833 813.69 388.398 814.838 394.425C815.616 398.513 815.18 409.564 815.127 414.185C815.064 422.691 815.047 431.197 815.075 439.703L815.022 549.128L815.065 756.387L815.098 824.835C815.129 847.381 818.624 868.901 804.308 888.332C784.65 915.014 756.152 911.282 727.143 911.155L679.75 911.131L515.999 911.139L257.151 911.098C209.345 911.116 161.565 911.226 113.732 911.16C93.0369 911.132 92.4686 905.646 92.4201 886.263C92.2425 815.156 87.4655 757.241 125.796 693.173C158.151 638.104 211.352 598.414 273.357 583.087C293.341 578.098 301.754 578.429 321.335 576.558L321.048 533.643C288.454 504.13 270.051 468.713 266.91 424.614C240.421 421.105 223.462 397.447 227.445 371.228C229.34 359.182 235.929 348.377 245.771 341.177C251.63 336.889 255.972 335.331 262.744 333.126C258.522 327.947 254.356 322.891 250.368 317.526C245.108 309.155 242.308 304.304 237.955 295.394Z"/><path fill="#D2494E" transform="scale(0.5 0.5)" d="M524.266 591.984C568.766 594.156 606.57 605.903 643.138 632.075C643.122 632.441 643.109 632.806 643.097 633.172C642.599 648.662 642.959 666.286 642.948 681.953L642.947 779.626L642.883 829.916C642.843 859.365 639.565 872.765 660.939 895.482L393.809 895.482L221.631 895.489C221.314 883.655 221.561 870.784 221.556 858.825L221.537 791.426L221.608 765.81C221.632 757.915 224.246 742.189 212.862 742.486C200.917 742.797 204.024 759.268 204.094 767.387L204.082 796.131L204.171 895.488L108.482 895.496C107.899 871.271 108.476 846.794 108.285 822.545C108.213 813.451 108.295 804.05 109.084 794.996C113.243 746.689 133.097 701.07 165.614 665.105C204.079 622.086 257.911 595.91 315.5 592.223L321.412 592.063C322.658 611.552 330.003 629.966 342.195 645.154C390.446 705.26 485.264 693.012 516.642 622.676C521.211 612.434 522.952 602.982 524.266 591.984Z"/><path fill="#FAC4A0" transform="scale(0.5 0.5)" d="M510.259 231.397C511.256 232.325 511.437 239.744 511.641 241.792C514.833 273.7 527.741 302.121 547.605 327.12C552.07 332.74 557.663 339.193 561.713 345.176L562.134 345.805C562.722 357.23 562.071 371.154 562.212 382.965C562.83 418.071 563.416 448.124 545.887 480.021C508.061 548.849 424.3 573.695 355.266 536.658C340.014 527.857 326.8 517.627 315.394 504.088C297.486 482.649 286.623 456.212 284.284 428.377C283.314 415.919 284.085 400.35 283.927 387.544C283.751 373.25 283.66 357.496 284.087 343.225C284.235 338.277 288.324 324.216 289.671 318.172C292.418 306.699 294.83 295.121 298.006 283.757C299.913 276.936 304.717 272.466 311.88 271.918C321.031 271.22 330.503 271.572 339.694 271.593L411.556 271.662C423.169 271.665 434.772 271.658 446.39 271.504C474.171 271.135 490.13 247.906 510.259 231.397Z"/><path transform="scale(0.5 0.5)" d="M380.076 468.073C383.243 468.189 384.962 468.887 387.822 470.263C399.472 475.865 409.649 479.624 422.725 479.54C428.976 479.524 435.195 478.654 441.211 476.957C446.505 475.441 451.634 473.202 456.662 470.901C460.98 468.796 467.567 466.642 470.778 471.84C475.228 479.043 471.401 482.431 465.775 485.939C462.336 487.804 458.753 489.391 455.06 490.682C430.073 499.534 407.905 497.994 383.447 487.984C372.944 483.685 366.813 472.232 380.076 468.073Z"/><path transform="scale(0.5 0.5)" d="M328.335 328.102C338.074 327.71 394.58 326.854 400.108 328.748C402.187 329.461 403.862 331.231 404.722 333.222C405.727 335.544 405.786 338.356 404.716 340.666C403.512 343.266 401.387 344.498 398.83 345.509C391.508 346.144 331.562 346.256 327.154 344.826C325.057 344.138 323.326 342.635 322.351 340.655C319.486 334.766 323.159 330.525 328.335 328.102Z"/><path transform="scale(0.5 0.5)" d="M446.491 328.039C455.096 327.469 512.196 327.097 517.03 328.784C519.433 329.622 521.432 331.721 522.372 334.057C523.226 336.159 523.186 338.518 522.26 340.589C521.06 343.259 518.609 344.445 516.045 345.435C497.338 346.684 477.284 345.091 458.461 345.747C453.097 345.935 444.082 346.645 441.199 341.188C437.962 335.06 441.131 331.044 446.491 328.039Z"/><path transform="scale(0.5 0.5)" d="M479.727 362.273C489.397 361.163 498.137 368.1 499.252 377.77C500.367 387.439 493.435 396.183 483.766 397.303C474.089 398.424 465.337 391.486 464.221 381.808C463.106 372.131 470.049 363.383 479.727 362.273Z"/><path transform="scale(0.5 0.5)" d="M359.547 362.73C368.99 360.478 378.473 366.302 380.734 375.744C382.995 385.185 377.179 394.673 367.74 396.943C358.288 399.216 348.785 393.391 346.521 383.937C344.257 374.483 350.091 364.985 359.547 362.73Z"/><path fill="#5E676B" transform="scale(0.5 0.5)" d="M392.434 86.4284C404.993 85.3866 427.726 86.0631 441.108 86.0869L519.993 86.0595L519.924 105.99C519.906 120.46 521.522 132.194 532.645 141.859C573.371 177.247 616.099 189.151 599.672 253.741C591.99 283.944 588.518 299.829 570.166 327.995C566.724 323.568 552.372 305.481 550.793 302.054C543.653 290.539 535.363 272.818 532.473 259.847C531.029 253.365 529.945 245.507 528.915 238.86C527.621 232.282 528.956 221.741 524.946 215.978C515.331 202.164 502.592 214.467 494.678 221.441C483.949 230.505 470.943 245.709 458.545 251.709C450.007 255.84 423.579 254.397 413.449 254.398L346.947 254.348C335.331 254.343 323.683 254.235 312.082 254.477C301.429 254.384 289.198 261.458 284.656 271.435C278.337 285.319 274.805 304.785 271.545 319.806C252.157 295.082 241.418 269.92 241.336 237.976C241.126 156.468 311.193 86.9905 392.434 86.4284Z"/><path fill="#444749" transform="scale(0.5 0.5)" d="M392.434 86.4284C404.993 85.3866 427.726 86.0631 441.108 86.0869L519.993 86.0595L519.924 105.99C519.906 120.46 521.522 132.194 532.645 141.859C573.371 177.247 616.099 189.151 599.672 253.741C591.99 283.944 588.518 299.829 570.166 327.995C566.724 323.568 552.372 305.481 550.793 302.054C554.823 294.63 561.703 267.985 562.968 259.521C563.846 253.578 564.234 247.573 564.128 241.566C563.678 206.085 536.425 187.924 510.258 169.602C502.801 164.38 487.871 154.932 486.078 145.812C482.396 127.083 484.052 105.939 483.874 86.6631C458.208 86.3527 432.474 86.7926 406.803 86.6338C402.012 86.6041 397.217 86.7465 392.434 86.4284Z"/><path fill="#ED9530" transform="scale(0.5 0.5)" d="M699.613 404.6C701.72 401.241 708.822 394.421 712.157 391.96C729.342 379.278 747.043 387.538 758.408 402.891L758.789 403.42C764.784 398.273 766.29 393.429 774.292 388.728C787.675 380.866 793.119 394.74 798.859 395.057C800.591 399.409 799.77 463.957 799.772 471.549L799.732 655.73C799.746 684.928 799.102 716.999 799.852 745.971C786.386 745.97 766.35 746.624 753.239 745.917C747.966 746.215 740.43 745.982 735.023 745.98L699.899 745.967L659.44 745.965L659.417 486.088L659.428 430.377C659.429 422.96 658.79 401.792 660.555 395.537L661.89 396.178C663.6 395.257 664.625 393.535 666.031 392.37C678.735 381.843 690.738 387.37 697.036 401.18C697.552 402.311 698.346 404.398 699.613 404.6Z"/><path fill="#CC792F" transform="scale(0.5 0.5)" d="M758.789 403.42C764.784 398.273 766.29 393.429 774.292 388.728C787.675 380.866 793.119 394.74 798.859 395.057C800.591 399.409 799.77 463.957 799.772 471.549L799.732 655.73C799.746 684.928 799.102 716.999 799.852 745.971C786.386 745.97 766.35 746.624 753.239 745.917C755.005 745.593 757.199 745.706 759.029 745.721L759.084 515.37L759.019 444.345C759.018 432.08 759.504 415.417 758.789 403.42Z"/><path fill="#EEAE5F" transform="scale(0.5 0.5)" d="M660.555 395.537L661.89 396.178C663.6 395.257 664.625 393.535 666.031 392.37C678.735 381.843 690.738 387.37 697.036 401.18C697.552 402.311 698.346 404.398 699.613 404.6C700.133 412.52 699.647 421.483 699.629 429.529L699.667 480.127L699.769 661L699.71 716.696C699.717 726.061 699.502 736.682 699.899 745.967L659.44 745.965L659.417 486.088L659.428 430.377C659.429 422.96 658.79 401.792 660.555 395.537Z"/><path fill="#FAC4A0" transform="scale(0.5 0.5)" d="M506.78 546.956C508.681 549.782 507.122 588.407 506.242 593.816C493.825 670.156 397.513 693.506 352.156 628.734C334.772 603.053 337.805 576.698 338.34 547.14C353.385 556.402 369.831 563.165 387.039 567.168C429.035 577.081 470.198 569.52 506.78 546.956Z"/><path fill="#FAC4A0" transform="scale(0.5 0.5)" d="M701.75 289.219C713.623 296.701 725.613 297.494 739.114 296.265C739.603 296.056 742.979 295.415 743.752 295.243C749.219 294.031 753.091 292.684 757.964 290.01L784.456 358.298L794.433 383.946C795.665 387.089 797.869 392.005 798.859 395.057C793.119 394.74 787.675 380.866 774.292 388.728C766.29 393.429 764.784 398.273 758.789 403.42L758.408 402.891C747.043 387.538 729.342 379.278 712.157 391.96C708.822 394.421 701.72 401.241 699.613 404.6C698.346 404.398 697.552 402.311 697.036 401.18C690.738 387.37 678.735 381.843 666.031 392.37C664.625 393.535 663.6 395.257 661.89 396.178L660.555 395.537C668.312 374.281 677.609 352.327 685.569 330.963C690.409 317.971 696.346 301.683 701.75 289.219Z"/><path fill="#E77C7D" transform="scale(0.5 0.5)" d="M739.114 296.265C739.603 296.056 742.979 295.415 743.752 295.243C749.219 294.031 753.091 292.684 757.964 290.01L784.456 358.298L794.433 383.946C795.665 387.089 797.869 392.005 798.859 395.057C793.119 394.74 787.675 380.866 774.292 388.728C766.29 393.429 764.784 398.273 758.789 403.42L758.408 402.891C758.543 399.402 755.986 384.513 755.284 380.545L748.588 343.391C746.82 333.695 745.116 323.988 743.474 314.27C742.553 308.864 741.574 301.904 740.281 296.668L739.114 296.265Z"/><path fill="#E77C7D" transform="scale(0.5 0.5)" d="M752.887 826.412C765.319 825.683 786.735 826.136 799.752 826.365C799.638 846.263 803.284 869.194 788.084 883.337C775.144 895.378 765.364 895.675 749.135 895.638L728.955 895.558C708.312 895.619 685.572 898.677 670.545 882.885C659.283 871.05 659.347 860.962 659.401 846.025L659.504 826.263C690.559 826.662 721.839 826.014 752.887 826.412Z"/><path fill="#D2494E" transform="scale(0.5 0.5)" d="M752.887 826.412C765.319 825.683 786.735 826.136 799.752 826.365C799.638 846.263 803.284 869.194 788.084 883.337C775.144 895.378 765.364 895.675 749.135 895.638L728.955 895.558C735.718 891.396 738.355 893.912 747.452 885.138C762.982 870.159 759.104 847.394 759.48 826.687C757.192 826.674 755.159 826.552 752.887 826.412Z"/><path fill="#CCB093" transform="scale(0.5 0.5)" d="M759.105 763.434L799.881 763.471C799.289 778.535 799.867 793.914 799.663 809.007L759.025 809.009L700.071 809.007L659.633 809.053L659.613 763.468L700.157 763.442C719.527 763.497 739.811 763.811 759.105 763.434Z"/><path fill="#9D8B6F" transform="scale(0.5 0.5)" d="M759.105 763.434L799.881 763.471C799.289 778.535 799.867 793.914 799.663 809.007L759.025 809.009C758.917 793.817 758.944 778.625 759.105 763.434Z"/><path fill="#FAC4A0" transform="scale(0.5 0.5)" d="M659.613 763.468L700.157 763.442C699.953 778.63 699.925 793.819 700.071 809.007L659.633 809.053L659.613 763.468Z"/><path fill="#444749" transform="scale(0.5 0.5)" d="M701.75 289.219L717.185 249.812C719.845 242.958 722.813 227.715 731.425 227.963C736.501 230.955 742.086 248.982 744.449 255.229L757.964 290.01C753.091 292.684 749.219 294.031 743.752 295.243C742.979 295.415 739.603 296.056 739.114 296.265C725.613 297.494 713.623 296.701 701.75 289.219Z"/><path fill="#5E676B" transform="scale(0.5 0.5)" d="M726.834 236.944C728.322 239.842 724.435 271.064 724.021 276.889C723.573 283.196 721.211 287.559 713.894 285.752C713.396 285.133 713.033 284.556 712.696 283.827C709.647 277.243 724.282 244.709 726.834 236.944Z"/><path fill="#FAC4A0" transform="scale(0.5 0.5)" d="M264.951 348.466L266.032 348.605C266.88 350.255 266.47 403.138 266.46 408.776C260.33 407.045 257.164 405.91 252.265 401.595C249.275 398.404 247.111 395.276 245.433 391.22C242.077 383.107 242.12 373.986 245.552 365.904C249.422 356.959 256.108 351.895 264.951 348.466Z"/><path fill="#FAC4A0" transform="scale(0.5 0.5)" d="M579.305 348.312C582.707 349.432 585.904 351.101 588.767 353.254C595.584 358.262 600.098 365.803 601.292 374.177C602.736 383.855 599.456 392.429 593.737 400.083C589.256 404.587 585.333 406.762 579.426 408.757C578.948 389.282 579.451 367.994 579.305 348.312Z"/></svg>