<?xml version="1.0" encoding="utf-8" ?><svg xmlns="http://www.w3.org/2000/svg" xmlns:xlink="http://www.w3.org/1999/xlink" width="512" height="512" viewBox="0 0 512 512"><path fill="#F4D691" transform="scale(0.5 0.5)" d="M334.478 233.636C337.002 239.542 386.548 263.605 395.482 269.5C400.494 271.882 431.501 288.11 434.538 290.689C459.517 304.527 487.12 323.68 512.272 336.166C516.708 332.991 527.209 327.556 532.422 324.696C543.339 318.689 554.217 312.612 565.057 306.466L655.358 254.848C660.005 252.199 686.696 236.167 690.438 235.463L690.557 420.307C708.809 431.62 727.449 441.667 746.054 452.373L760.044 460.684L764.16 463.226C767.713 464.77 777.99 471.312 781.561 473.558C798.237 482.369 815.604 493.353 832.256 502.528C836.909 505.091 857.327 516.632 860.44 519.371L860.573 523.314L860.581 714.885L759.559 775.532C736.598 789.431 711.22 805.395 687.918 818.472C681.356 816.565 646.627 795.053 638.956 790.568C596.618 766.214 554.448 741.571 512.448 716.64C494.6 727.852 473.637 739.687 455.258 750.445L372.327 799.42C362.014 805.536 350.873 811.648 340.792 817.957C335.709 816.963 306.776 798.538 300.673 795.013C255.043 768.66 209.807 741.21 164.013 715.176C163.698 708.171 163.941 699.45 163.952 692.31L164.001 651.071L163.932 525.871L163.954 519.314C165.345 516.662 186.092 505.994 189.953 503.824L294.788 443.578L319.556 429.15C323.408 426.901 331.505 421.86 335.375 420.758C334.777 414.535 335.007 404.286 334.989 397.791L334.907 358.578C335.008 316.93 334.864 275.282 334.478 233.636Z"/><path fill="#ECBF62" transform="scale(0.5 0.5)" d="M334.478 233.636C337.002 239.542 386.548 263.605 395.482 269.5C400.494 271.882 431.501 288.11 434.538 290.689C459.517 304.527 487.12 323.68 512.272 336.166C512.803 340.433 512.542 350.123 512.523 354.799L512.134 394.328C512.059 406.194 513.625 517.981 511.902 520.839C511.832 520.956 511.729 521.051 511.642 521.157C510.348 520.83 510.361 520.741 509.071 520.959C504.484 519.34 497.649 514.097 493.225 511.429C471.968 498.61 449.772 487.244 428.532 474.403C413.49 483.547 398.594 491.754 383.476 500.614L318.398 539.024C305.842 546.225 293.341 553.524 280.899 560.92C274.867 564.47 265.437 569.683 260.061 573.716C254.088 570.262 247.885 566.329 241.97 562.715C269.125 547.308 296.154 530.784 323.233 515.385C341.092 505.214 358.863 494.892 376.547 484.42C381.779 481.336 407.346 467.246 408.041 463.975L406.962 463.602C404.123 463.866 385.844 475.058 381.948 477.329C365.226 486.851 348.621 496.577 332.137 506.505L268.727 543.994C259.192 549.655 248.634 555.611 239.409 561.572C234.797 559.124 228.864 555.361 224.269 552.619C204.961 541.108 183.227 531.738 163.954 519.314C165.345 516.662 186.092 505.994 189.953 503.824L294.788 443.578L319.556 429.15C323.408 426.901 331.505 421.86 335.375 420.758C334.777 414.535 335.007 404.286 334.989 397.791L334.907 358.578C335.008 316.93 334.864 275.282 334.478 233.636Z"/><path fill="#F4D691" transform="scale(0.5 0.5)" d="M163.954 519.314C165.345 516.662 186.092 505.994 189.953 503.824L294.788 443.578L319.556 429.15C323.408 426.901 331.505 421.86 335.375 420.758C338.67 423.51 349.726 429.578 353.665 431.839C366.231 439.05 379.072 445.854 391.517 453.32C355.184 475.945 316.918 497.916 280.055 519.799L245.341 540.481C239.974 543.699 229.751 550.194 224.269 552.619C204.961 541.108 183.227 531.738 163.954 519.314Z"/><path fill="#E1A848" transform="scale(0.5 0.5)" d="M395.482 269.5C400.494 271.882 431.501 288.11 434.538 290.689C434.06 310.28 434.456 332.064 434.487 351.764L419.295 328.219L418.203 335.286C414.794 330.588 409.149 324.524 405.165 320.033C401.922 321.35 398.657 322.615 395.373 323.826L395.482 269.5Z"/><path fill="#ECBF62" transform="scale(0.5 0.5)" d="M163.932 525.871C169.48 527.795 184.24 536.831 190.345 540.326C198.474 544.981 213.913 552.606 220.817 557.872C233.807 564.399 246.902 572.323 259.91 579.193C280.642 590.406 300.287 603.085 320.868 614.53C327.06 617.973 333.901 623.376 340.365 626.184C340.867 637.453 340.495 651.467 340.471 662.988L340.516 730.144L341.003 790.201C341.017 797.913 341.43 810.576 340.792 817.957C335.709 816.963 306.776 798.538 300.673 795.013C255.043 768.66 209.807 741.21 164.013 715.176C163.698 708.171 163.941 699.45 163.952 692.31L164.001 651.071L163.932 525.871Z"/><path fill="#E1A848" transform="scale(0.5 0.5)" d="M220.817 557.872C233.807 564.399 246.902 572.323 259.91 579.193C259.613 584.9 259.875 591.756 259.898 597.582C260.01 610.91 259.99 624.24 259.838 637.568C254.855 630.34 249.909 623.085 245.002 615.805L242.928 621.303L230.7 609.147C227.407 610.462 223.831 611.724 220.49 612.971C220.382 594.604 220.492 576.236 220.817 557.872Z"/><path fill="#ECBF62" transform="scale(0.5 0.5)" d="M511.959 525.789C520.494 529.399 534.067 537.821 542.567 542.714C551.129 547.643 565.297 554.864 573.013 560.354C579.003 563.327 604.994 577.085 609.499 580.63C634.319 594.755 662.926 611.042 686.882 626.211C687.359 643.07 686.937 661.478 686.994 678.481L687.494 758.692C687.496 776.042 686.707 801.673 687.918 818.472C681.356 816.565 646.627 795.053 638.956 790.568C596.618 766.214 554.448 741.571 512.448 716.64C511.26 713.348 512.137 680.058 512.127 673.315L511.959 525.789Z"/><path fill="#E1A848" transform="scale(0.5 0.5)" d="M573.013 560.354C579.003 563.327 604.994 577.085 609.499 580.63C609.288 599.703 609.914 619.538 609.901 638.76C607.849 635.853 597.692 618.861 595.087 618.825L594.215 621.073C591.984 620.602 584.576 612.525 582.55 610.456L572.022 615.069C572.095 597.397 572.174 577.894 573.013 560.354Z"/><path fill="#E1A848" transform="scale(0.5 0.5)" d="M686.882 626.211C713.178 610.226 740.953 594.99 767.303 578.965C798.525 559.977 828.508 541.008 860.573 523.314L860.581 714.885L759.559 775.532C736.598 789.431 711.22 805.395 687.918 818.472C686.707 801.673 687.496 776.042 687.494 758.692L686.994 678.481C686.937 661.478 687.359 643.07 686.882 626.211Z"/><path fill="#F4D691" transform="scale(0.5 0.5)" d="M759.899 646.626C762.881 649.709 746.28 671.59 749.04 676.75C758.421 694.284 772.439 663.671 775.905 657.779C782.412 660.854 805.334 671.072 808.11 676.663C808.464 680.369 806.85 682.728 805.193 686.093C801.376 683.316 788.147 672.95 784.254 674.055L783.744 675.28C784.523 680.623 793.077 683.3 796.967 686.583C798.722 688.065 799.511 688.998 800.979 690.723C800.299 692.168 799.603 693.606 798.893 695.036C797.812 696.565 796.645 698.055 795.51 699.546C790.829 696.491 786.044 693.247 781.397 690.106C780.339 689.392 779.279 689.802 778.277 690.094C777.097 691.607 777.447 690.754 777.357 692.807C780.839 700.958 798.156 698.351 783.699 711.73C773.601 705.094 759.312 693.662 747.812 690.475C740.572 688.469 740.079 697.315 736.409 699.786C734.512 699.821 735.391 700.04 733.707 698.998C733.047 697.106 733.739 694.255 734.27 692.345C738.187 678.249 738.471 663.959 739.048 649.429C747.577 649.513 751.713 648.625 759.899 646.626Z"/><path fill="#F4D691" transform="scale(0.5 0.5)" d="M787.384 624.521C790.6 624.769 792.213 626.345 793.976 628.899C800.7 638.638 807.066 650.393 811.454 661.297C810.591 663.92 809.64 665.947 808.508 668.442C799.587 663.578 790.288 658.317 781.073 654.076C777.873 652.603 776.146 651.906 772.947 653.189C769.871 657.013 759.216 679.291 754.182 673.771C754.286 669.855 759.99 661.883 761.835 657.929C768.606 643.415 771.138 630.688 787.384 624.521Z"/><path fill="#F4D691" transform="scale(0.5 0.5)" d="M811.345 604.839C813.259 606.758 816.548 619.09 817.742 622.833C820.353 630.912 823.176 638.922 826.208 646.853C824.025 649.352 820.074 654.886 816.676 654.933L815.56 653.35C809.577 642.385 803.439 631.504 797.149 620.71C802.185 613.471 804.334 609.943 811.345 604.839Z"/><path fill="#F4D691" transform="scale(0.5 0.5)" d="M723.741 646.712C728.809 647.799 732.494 648.605 737.639 649.21C735.568 666.263 733.101 677.728 728.052 694.303L727.506 695.239C725.102 696.956 720.481 696.454 717.426 696.413C720.355 682.96 722.652 660.484 723.741 646.712Z"/><path fill="#F4D691" transform="scale(0.5 0.5)" d="M767.451 708.637C769.72 709.493 770.267 711.215 771.421 713.399C767.804 719.423 765.049 724.365 760.977 730.145C760.832 730.222 759.9 730.312 759.701 730.337C759.153 729.847 758.675 729.599 758.538 728.916C757.686 724.642 765.235 712.618 767.451 708.637Z"/><path fill="#F4D691" transform="scale(0.5 0.5)" d="M745.148 695.698C752.112 700.594 743.223 710.779 739.605 715.259C738.85 714.631 737.241 713.168 737.149 712.285C736.691 707.863 742.77 699.487 745.148 695.698Z"/><path fill="#F4D691" transform="scale(0.5 0.5)" d="M754.156 699.194C761.055 704.311 752.928 713.788 748.905 718.474C747.569 717.848 747.346 717.933 746.594 716.732C746.475 712.205 751.829 703.467 754.156 699.194Z"/><path fill="#F4D691" transform="scale(0.5 0.5)" d="M761.431 705.861L762.359 707.008C763.157 711.2 758.057 721.726 754.35 723.204C753.48 722.273 753.119 721.801 752.33 720.806C752.434 719.63 760.154 707.925 761.431 705.861Z"/><path fill="#F4D691" transform="scale(0.5 0.5)" d="M774.747 714.951L780.738 715.561C777.871 719.306 775.693 721.281 771.978 724.049L766.927 726.812C770.117 722.805 772.409 719.487 774.747 714.951Z"/><path fill="#E1A848" transform="scale(0.5 0.5)" d="M512.272 336.166C516.708 332.991 527.209 327.556 532.422 324.696C543.339 318.689 554.217 312.612 565.057 306.466L655.358 254.848C660.005 252.199 686.696 236.167 690.438 235.463L690.557 420.307C669.774 432.891 648.773 445.114 627.564 456.969L563.518 494.199C552.86 500.298 542.248 506.474 531.682 512.729C527.598 515.122 519.191 519.673 515.772 522.388C513.831 521.996 513.5 521.879 511.642 521.157C511.729 521.051 511.832 520.956 511.902 520.839C513.625 517.981 512.059 406.194 512.134 394.328L512.523 354.799C512.542 350.123 512.803 340.433 512.272 336.166Z"/><path fill="#F4D691" transform="scale(0.5 0.5)" d="M623.741 313.36L624.62 313.639C624.949 315.2 610.205 361.993 608.42 367.206C615.839 363.768 624.451 360.757 632.192 357.904C628.192 370.265 617.164 386.568 610.221 398.033L582.848 443.553C582.237 444.717 582.148 444.776 581.273 445.776L580.817 445.233C580.945 440.79 584.909 428.426 586.317 423.542L595.502 391.429C589.061 393.641 581.026 397.407 574.905 400.389C579.681 384.509 584.589 368.669 589.631 352.871C592.404 343.982 595.094 334.285 598.166 325.567C606.125 321.485 615.54 317.364 623.741 313.36Z"/><path fill="#E1A848" transform="scale(0.5 0.5)" d="M340.365 626.184C348.572 620.07 366.859 610.688 376.545 604.911C408.057 585.949 439.721 567.241 471.535 548.789C477.875 545.049 507.204 527.135 511.959 525.789L512.127 673.315C512.137 680.058 511.26 713.348 512.448 716.64C494.6 727.852 473.637 739.687 455.258 750.445L372.327 799.42C362.014 805.536 350.873 811.648 340.792 817.957C341.43 810.576 341.017 797.913 341.003 790.201L340.516 730.144L340.471 662.988C340.495 651.467 340.867 637.453 340.365 626.184Z"/><path fill="#F4D691" transform="scale(0.5 0.5)" d="M426.656 625.601C447.094 623.877 445.831 637.3 446.685 652.964L451.659 655.622C453.011 664.946 453.14 688.916 451.284 698.047C444.529 704.373 426.44 711.017 417.378 714.74C412.784 716.798 402.41 722.457 398.061 719.467C394.537 713.25 396.085 683.662 396.563 675.239C398.511 673.05 399.081 672.587 401.461 670.856C401.064 648.83 404.717 634.655 426.656 625.601Z"/><path fill="#E1A848" transform="scale(0.5 0.5)" d="M428.027 633.057C441.321 633.61 439.663 646.079 439.472 655.888C432.673 660.369 424.726 663.421 417.128 666.275C414.339 667.463 411.469 668.196 408.554 669.024C408.715 652.695 409.064 637.969 428.027 633.057Z"/><path fill="#E1A848" transform="scale(0.5 0.5)" d="M424.453 672.519C425 672.491 425.548 672.471 426.095 672.458C438.648 672.212 429.984 685.294 429.243 691.217C428.948 693.579 429.603 697.374 429.391 700.259C428.492 701.769 427.71 701.759 425.84 702.739C423.807 703.499 423.422 703.846 421.912 702.439C420.853 699.582 421.423 695.287 421.532 691.997C413.259 685.508 416.738 677.559 424.453 672.519Z"/><path fill="#F4D691" transform="scale(0.5 0.5)" d="M428.532 474.403C449.772 487.244 471.968 498.61 493.225 511.429C497.649 514.097 504.484 519.34 509.071 520.959C505.679 524.928 478.227 539.866 471.851 543.54L434.117 565.574L371.442 602.235C361.348 608.141 349.87 615.224 339.748 620.741C325.11 611.386 310.24 602.4 295.152 593.791C283.882 587.348 270.881 580.6 260.061 573.716C265.437 569.683 274.867 564.47 280.899 560.92C293.341 553.524 305.842 546.225 318.398 539.024L383.476 500.614C398.594 491.754 413.49 483.547 428.532 474.403Z"/><path fill="#F4D691" transform="scale(0.5 0.5)" d="M515.772 522.388C519.191 519.673 527.598 515.122 531.682 512.729C542.248 506.474 552.86 500.298 563.518 494.199L627.564 456.969C648.773 445.114 669.774 432.891 690.557 420.307C708.809 431.62 727.449 441.667 746.054 452.373C742.507 456.909 702.024 480.239 693.98 485.054L613.774 533.016C601.827 540.162 588.332 549.101 576.599 555.813C564.706 549.253 552.921 542.109 541.057 535.483C533.477 531.25 523.87 525.432 515.772 522.388Z"/><path fill="#C69339" transform="scale(0.5 0.5)" d="M746.054 452.373L760.044 460.684L764.16 463.226C767.713 464.77 777.99 471.312 781.561 473.558C742.285 497.386 701.957 520.21 662.495 543.771C645.088 554.163 627.04 563.905 609.879 574.662C615.972 578.599 622.974 582.234 629.259 585.962C648.51 597.385 669.314 608.093 687.74 620.715C693.909 617.316 700.652 613.118 706.929 609.551C741.635 589.783 776.085 569.568 810.27 548.912L843.095 529.273C847.211 526.811 856.511 520.956 860.44 519.371L860.573 523.314C828.508 541.008 798.525 559.977 767.303 578.965C740.953 594.99 713.178 610.226 686.882 626.211C662.926 611.042 634.319 594.755 609.499 580.63C604.994 577.085 579.003 563.327 573.013 560.354C565.297 554.864 551.129 547.643 542.567 542.714C534.067 537.821 520.494 529.399 511.959 525.789C507.204 527.135 477.875 545.049 471.535 548.789C439.721 567.241 408.057 585.949 376.545 604.911C366.859 610.688 348.572 620.07 340.365 626.184C333.901 623.376 327.06 617.973 320.868 614.53C300.287 603.085 280.642 590.406 259.91 579.193C246.902 572.323 233.807 564.399 220.817 557.872C213.913 552.606 198.474 544.981 190.345 540.326C184.24 536.831 169.48 527.795 163.932 525.871L163.954 519.314C183.227 531.738 204.961 541.108 224.269 552.619C228.864 555.361 234.797 559.124 239.409 561.572C248.634 555.611 259.192 549.655 268.727 543.994L332.137 506.505C348.621 496.577 365.226 486.851 381.948 477.329C385.844 475.058 404.123 463.866 406.962 463.602L408.041 463.975C407.346 467.246 381.779 481.336 376.547 484.42C358.863 494.892 341.092 505.214 323.233 515.385C296.154 530.784 269.125 547.308 241.97 562.715C247.885 566.329 254.088 570.262 260.061 573.716C270.881 580.6 283.882 587.348 295.152 593.791C310.24 602.4 325.11 611.386 339.748 620.741C349.87 615.224 361.348 608.141 371.442 602.235L434.117 565.574L471.851 543.54C478.227 539.866 505.679 524.928 509.071 520.959C510.361 520.741 510.348 520.83 511.642 521.157C513.5 521.879 513.831 521.996 515.772 522.388C523.87 525.432 533.477 531.25 541.057 535.483C552.921 542.109 564.706 549.253 576.599 555.813C588.332 549.101 601.827 540.162 613.774 533.016L693.98 485.054C702.024 480.239 742.507 456.909 746.054 452.373Z"/><path fill="#ECBF62" transform="scale(0.5 0.5)" d="M764.16 463.226C767.713 464.77 777.99 471.312 781.561 473.558C742.285 497.386 701.957 520.21 662.495 543.771C645.088 554.163 627.04 563.905 609.879 574.662C608.297 574.002 596.519 566.696 594.096 565.273C632.521 542.5 670.826 519.526 709.01 496.353C720.871 489.232 733.034 482.481 744.889 475.35C751.093 471.617 758.449 467.588 764.16 463.226Z"/><path fill="#ECBF62" transform="scale(0.5 0.5)" d="M746.054 452.373L760.044 460.684C704.254 495.632 646.282 528.58 590.034 563.237C585.591 560.787 580.996 558.319 576.599 555.813C588.332 549.101 601.827 540.162 613.774 533.016L693.98 485.054C702.024 480.239 742.507 456.909 746.054 452.373Z"/><path fill="#F4D691" transform="scale(0.5 0.5)" d="M512.225 127.257C517.273 129.388 526.477 134.795 531.672 137.713C544.513 144.973 557.293 152.337 570.013 159.806C574.472 162.487 581.574 166.38 585.615 169.193C586.942 169.843 588.048 170.348 589.317 171.118C595.677 174.745 602.275 178.401 608.55 182.139L662.257 213.067C666.769 215.631 687.516 226.824 690.263 229.466C690.371 231.484 690.524 233.444 690.438 235.463C686.696 236.167 660.005 252.199 655.358 254.848L565.057 306.466C554.217 312.612 543.339 318.689 532.422 324.696C527.209 327.556 516.708 332.991 512.272 336.166C487.12 323.68 459.517 304.527 434.538 290.689C431.501 288.11 400.494 271.882 395.482 269.5C386.548 263.605 337.002 239.542 334.478 233.636L334.487 230.131C337.798 227.322 351.399 219.883 355.872 217.317L399.445 192.332C437.004 171.001 474.545 148.207 512.225 127.257Z"/><path fill="#F4D691" transform="scale(0.5 0.5)" d="M512.225 127.257C517.273 129.388 526.477 134.795 531.672 137.713C544.513 144.973 557.293 152.337 570.013 159.806C566.825 163.184 547.335 174.112 542.4 177.025L500.75 201.966L422.352 249.028C415.466 253.101 404.093 260.737 397.88 264.062C381.596 256.224 366.398 246.506 350.039 238.784C344.793 236.308 339.4 233.191 334.487 230.131C337.798 227.322 351.399 219.883 355.872 217.317L399.445 192.332C437.004 171.001 474.545 148.207 512.225 127.257Z"/><path fill="#ECBF62" transform="scale(0.5 0.5)" d="M589.317 171.118C595.677 174.745 602.275 178.401 608.55 182.139C566.764 207.48 522.904 232.421 480.667 257.249L448.237 276.419C444.343 278.698 438.261 281.838 434.792 284.058C433.78 282.951 419.827 275.909 417.154 274.418C435.339 263.001 455.451 251.646 474.028 240.677L532.728 205.578C544.839 198.549 556.876 191.393 568.837 184.112C574.736 180.556 584.107 175.211 589.317 171.118Z"/><path fill="#ECBF62" transform="scale(0.5 0.5)" d="M570.013 159.806C574.472 162.487 581.574 166.38 585.615 169.193C573.343 176.137 560.432 184.807 548.057 192.17C503.197 218.689 458.618 245.68 414.327 273.139C409.561 270.72 402.065 267.116 397.88 264.062C404.093 260.737 415.466 253.101 422.352 249.028L500.75 201.966L542.4 177.025C547.335 174.112 566.825 163.184 570.013 159.806Z"/><path fill="#C69339" transform="scale(0.5 0.5)" d="M585.615 169.193C586.942 169.843 588.048 170.348 589.317 171.118C584.107 175.211 574.736 180.556 568.837 184.112C556.876 191.393 544.839 198.549 532.728 205.578L474.028 240.677C455.451 251.646 435.339 263.001 417.154 274.418C419.827 275.909 433.78 282.951 434.792 284.058C440.229 289.645 469.16 305.431 476.974 310.071C487.98 316.606 501.154 324.857 512.209 331.111C546.781 312.062 581.167 292.674 615.359 272.951C640.259 258.563 665.283 243.56 690.263 229.466C690.371 231.484 690.524 233.444 690.438 235.463C686.696 236.167 660.005 252.199 655.358 254.848L565.057 306.466C554.217 312.612 543.339 318.689 532.422 324.696C527.209 327.556 516.708 332.991 512.272 336.166C487.12 323.68 459.517 304.527 434.538 290.689C431.501 288.11 400.494 271.882 395.482 269.5C386.548 263.605 337.002 239.542 334.478 233.636L334.487 230.131C339.4 233.191 344.793 236.308 350.039 238.784C366.398 246.506 381.596 256.224 397.88 264.062C402.065 267.116 409.561 270.72 414.327 273.139C458.618 245.68 503.197 218.689 548.057 192.17C560.432 184.807 573.343 176.137 585.615 169.193Z"/><path fill="#3A3A3B" transform="scale(0.5 0.5)" d="M330.635 882.79C355.755 880.494 378 898.954 380.373 924.068C382.746 949.181 364.353 971.481 339.247 973.931C314.032 976.39 291.615 957.901 289.232 932.68C286.849 907.458 305.406 885.097 330.635 882.79ZM338.804 953.483C344.382 951.993 348.987 949.22 351.712 944.006C357.303 933.311 356.97 911.831 344.739 905.714C339.741 903.214 335.655 903.223 330.416 903.505C324.63 905.642 319.959 907.923 317.568 914.061C310.567 932.032 314.627 955.705 338.804 953.483Z"/><path fill="#3A3A3B" transform="scale(0.5 0.5)" d="M737.829 883.285C762.65 879.85 785.553 897.194 788.976 922.016C792.4 946.839 775.046 969.734 750.222 973.146C725.414 976.556 702.536 959.216 699.115 934.409C695.694 909.602 713.024 886.717 737.829 883.285ZM748.425 953.472C764.805 948.997 766.968 930.833 762.83 916.727C759.636 905.839 750.3 903.074 739.958 903.542C726.413 908.271 723.175 917.618 723.568 930.936C724.024 946.37 732.967 955.185 748.425 953.472Z"/><path fill="#3A3A3B" transform="scale(0.5 0.5)" d="M843.74 886.379C848.951 885.893 860.427 886.065 865.844 886.304C871.403 905.393 876.757 924.54 881.906 943.744C887.581 924.572 891.802 906.091 898.003 886.427L921.203 886.504C918.807 893.408 916.568 900.686 914.363 907.672C907.767 926.745 900.34 950.866 894.716 970.407C886.764 970.287 878.811 970.267 870.858 970.345C866.481 955.609 861.545 940.965 857.085 926.247C855.944 922.483 854.737 919.142 854.09 915.241C848.711 932.586 842.709 952.792 838.144 970.312C829.631 970.425 822.696 970.125 813.816 970.521C807.74 953.105 802.547 933.231 797.016 915.502C795.092 909.334 790.061 892.479 789.393 887.072C790.832 886.098 791.295 886.394 793.318 886.222C799.564 886.235 805.809 886.291 812.053 886.391C817.445 903.418 822.958 926.562 827.134 944.097C827.831 941.181 828.743 937.965 829.611 935.075C834.434 919.008 838.435 902.268 843.74 886.379Z"/><path fill="#3A3A3B" transform="scale(0.5 0.5)" d="M169.189 852.21C183.705 850.925 197.514 853.722 211.547 856.903C211.57 864.257 211.549 871.612 211.484 878.967C200.179 875.597 190.596 873.093 178.699 873.066C169.752 873.045 154.472 876.263 155.214 887.724C156.02 900.17 179.939 901.774 188.922 904.905C195.734 907.28 202.223 909.181 207.728 914.08C220.768 925.588 219.32 947.846 207.999 960.067C198.053 970.804 184.874 972.169 171.124 972.81C159.702 973.802 141.858 970.906 130.467 968.128C131.019 963.032 130.515 949.504 130.512 943.652C143.611 950.262 159.098 952.979 173.735 951.682C182.252 950.927 193.35 947.033 191.969 936.45C190.376 924.245 169.286 922.979 160.394 920.064C153.415 918.109 147.858 915.833 141.928 911.617C128.253 901.894 127.577 878.554 137.504 865.92C144.824 856.603 157.484 853.269 169.189 852.21Z"/><path fill="#3A3A3B" transform="scale(0.5 0.5)" d="M472.48 847.043L495.5 847.024C494.784 869.665 495.535 892.407 495.313 915.064C495.278 918.573 495.39 921.98 495.068 925.487C505.043 912.141 515.336 899.036 525.938 886.182C535.157 885.938 544.279 886.344 553.472 886.126C550.145 889.577 545.481 895.556 542.308 899.476L520.905 926.452C525.998 934.154 535.059 945.309 541.101 952.536C545.698 958.436 550.197 964.411 554.597 970.46L527.007 970.401C523.191 966.26 518.525 959.814 515.02 955.205L495.163 928.879C496.013 939.544 495.349 958.725 495.388 970.34C488.329 969.828 479.566 970.131 472.497 970.345L472.48 847.043Z"/><path fill="#3A3A3B" transform="scale(0.5 0.5)" d="M571.058 853.739C576.769 854.285 591.862 853.962 598.137 853.981L652.554 854.014L652.531 873.99C640.853 873.96 629.175 873.997 617.498 874.101C610.08 874.108 601.815 873.808 594.52 874.271C593.935 883.727 594.247 893.843 594.368 903.353C607.966 902.496 631.909 903.15 645.892 903.264L645.918 909.875L645.958 923.453C628.805 923.342 611.652 923.333 594.499 923.425C594.361 939.115 594.357 954.806 594.488 970.496L571.341 970.5L571.058 853.739Z"/><path fill="#3A3A3B" transform="scale(0.5 0.5)" d="M235.344 865.497C243.116 865.637 250.891 865.636 258.664 865.494C258.854 872.496 258.945 879.5 258.94 886.504L283.733 886.526C284.02 892.167 283.965 898.738 284.043 904.454L258.927 904.481C258.77 913.231 258.982 923.056 258.761 931.681C258.162 955.121 264.062 956.782 285.795 951.697L285.609 957.875L285.501 969.734C261.607 974.291 235.22 977.911 235.349 944.765C235.401 931.461 235.299 917.846 235.368 904.509L222.496 904.503C222.748 898.094 223.099 893.483 222.616 887.03C227.109 886.845 231.021 886.94 235.494 887.063C235.22 880.223 235.368 872.41 235.344 865.497Z"/><path fill="#3A3A3B" transform="scale(0.5 0.5)" d="M426.374 884.205C437.016 882.96 448.749 885.147 459.013 887.734C458.946 893.923 458.89 899.686 459.136 905.874C445.362 903.625 424.442 898.81 415.641 913.753C408.809 925.353 409.929 943.508 422.917 950.462C433.998 956.395 447.585 953.536 459.04 950.284L458.935 957.566L458.957 968.874C428.632 977.231 392.969 973.982 387.611 935.741C383.836 908.791 398.643 887.488 426.374 884.205Z"/><path fill="#3A3A3B" transform="scale(0.5 0.5)" d="M665.399 847.117C673.263 847.069 681.127 847.091 688.99 847.181L688.97 969.125L688.931 969.864C687.372 970.974 668.809 970.503 665.498 970.492L665.399 847.117Z"/></svg>